<mxfile host="Electron" modified="2023-06-29T05:16:29.155Z" agent="Mozilla/5.0 (Windows NT 10.0; Win64; x64) AppleWebKit/537.36 (KHTML, like Gecko) draw.io/21.2.8 Chrome/112.0.5615.165 Electron/24.2.0 Safari/537.36" etag="BVzbwP0ep9ugtUEypfam" version="21.2.8" type="device" pages="3">
  <diagram name="Page-1" id="UoQGX7XyrvRd9T0W9F8p">
    <mxGraphModel dx="821" dy="2731" grid="1" gridSize="10" guides="1" tooltips="1" connect="1" arrows="1" fold="1" page="1" pageScale="1" pageWidth="850" pageHeight="1100" background="#ffffff" math="0" shadow="0">
      <root>
        <mxCell id="0" />
        <mxCell id="1" parent="0" />
        <mxCell id="PXJf__H6HsoUbVeddesp-2" value="" style="ellipse;whiteSpace=wrap;html=1;aspect=fixed;fillColor=#20ae1e;" vertex="1" parent="1">
          <mxGeometry x="519" y="-405" width="110" height="110" as="geometry" />
        </mxCell>
        <mxCell id="PXJf__H6HsoUbVeddesp-1" value="" style="rounded=0;whiteSpace=wrap;html=1;fillColor=#27a720;strokeColor=#82b366;" vertex="1" parent="1">
          <mxGeometry x="558" y="-730" width="120" height="30" as="geometry" />
        </mxCell>
        <mxCell id="exelCA2o7YdwSSAsO9UR-81" value="" style="rounded=0;whiteSpace=wrap;html=1;" parent="1" vertex="1">
          <mxGeometry x="100" y="-1480" width="130" height="30" as="geometry" />
        </mxCell>
        <mxCell id="exelCA2o7YdwSSAsO9UR-3" value="" style="strokeWidth=1;shadow=0;dashed=0;align=center;html=1;shape=mxgraph.mockup.forms.rrect;rSize=0;strokeColor=#999999;fillColor=#ffffff;" parent="1" vertex="1">
          <mxGeometry x="448.75" y="-1994" width="221.25" height="344" as="geometry" />
        </mxCell>
        <mxCell id="exelCA2o7YdwSSAsO9UR-4" value="Sign In" style="strokeWidth=1;shadow=0;dashed=0;align=center;html=1;shape=mxgraph.mockup.forms.anchor;fontSize=12;fontColor=#666666;align=left;resizeWidth=1;spacingLeft=0;" parent="exelCA2o7YdwSSAsO9UR-3" vertex="1">
          <mxGeometry width="78.63704819277108" height="20" relative="1" as="geometry">
            <mxPoint x="10" y="13" as="offset" />
          </mxGeometry>
        </mxCell>
        <mxCell id="exelCA2o7YdwSSAsO9UR-5" value="" style="shape=line;strokeColor=#ddeeff;strokeWidth=2;html=1;resizeWidth=1;" parent="exelCA2o7YdwSSAsO9UR-3" vertex="1">
          <mxGeometry width="141.54668674698792" height="10" relative="1" as="geometry">
            <mxPoint x="10" y="30" as="offset" />
          </mxGeometry>
        </mxCell>
        <mxCell id="exelCA2o7YdwSSAsO9UR-6" value="User Name:" style="strokeWidth=1;shadow=0;dashed=0;align=center;html=1;shape=mxgraph.mockup.forms.anchor;fontSize=12;fontColor=#666666;align=left;resizeWidth=1;spacingLeft=0;" parent="exelCA2o7YdwSSAsO9UR-3" vertex="1">
          <mxGeometry width="78.63704819277108" height="20" relative="1" as="geometry">
            <mxPoint x="10" y="47" as="offset" />
          </mxGeometry>
        </mxCell>
        <mxCell id="exelCA2o7YdwSSAsO9UR-7" value="" style="strokeWidth=1;shadow=0;dashed=0;align=center;html=1;shape=mxgraph.mockup.forms.rrect;rSize=0;strokeColor=#999999;fontColor=#666666;align=left;spacingLeft=5;resizeWidth=1;" parent="exelCA2o7YdwSSAsO9UR-3" vertex="1">
          <mxGeometry width="150" height="25" relative="1" as="geometry">
            <mxPoint x="10" y="67" as="offset" />
          </mxGeometry>
        </mxCell>
        <mxCell id="exelCA2o7YdwSSAsO9UR-8" value="Password:" style="strokeWidth=1;shadow=0;dashed=0;align=center;html=1;shape=mxgraph.mockup.forms.anchor;fontSize=12;fontColor=#666666;align=left;resizeWidth=1;spacingLeft=0;" parent="exelCA2o7YdwSSAsO9UR-3" vertex="1">
          <mxGeometry width="78.63704819277108" height="20" relative="1" as="geometry">
            <mxPoint x="10" y="108" as="offset" />
          </mxGeometry>
        </mxCell>
        <mxCell id="exelCA2o7YdwSSAsO9UR-9" value="" style="strokeWidth=1;shadow=0;dashed=0;align=center;html=1;shape=mxgraph.mockup.forms.rrect;rSize=0;strokeColor=#999999;fontColor=#666666;align=left;spacingLeft=5;resizeWidth=1;" parent="exelCA2o7YdwSSAsO9UR-3" vertex="1">
          <mxGeometry width="150" height="25" relative="1" as="geometry">
            <mxPoint x="10" y="138" as="offset" />
          </mxGeometry>
        </mxCell>
        <mxCell id="exelCA2o7YdwSSAsO9UR-10" value="SIGN IN" style="strokeWidth=1;shadow=0;dashed=0;align=center;html=1;shape=mxgraph.mockup.forms.rrect;rSize=5;strokeColor=none;fontColor=#ffffff;fillColor=#66bbff;fontSize=16;fontStyle=1;" parent="exelCA2o7YdwSSAsO9UR-3" vertex="1">
          <mxGeometry y="1" width="80" height="29" relative="1" as="geometry">
            <mxPoint x="20" y="-165" as="offset" />
          </mxGeometry>
        </mxCell>
        <mxCell id="exelCA2o7YdwSSAsO9UR-11" value="Forgot Password?" style="strokeWidth=1;shadow=0;dashed=0;align=center;html=1;shape=mxgraph.mockup.forms.anchor;fontSize=12;fontColor=#9999ff;align=left;spacingLeft=0;fontStyle=4;resizeWidth=1;" parent="exelCA2o7YdwSSAsO9UR-3" vertex="1">
          <mxGeometry y="1" width="117.9555722891566" height="20" relative="1" as="geometry">
            <mxPoint x="10" y="-118" as="offset" />
          </mxGeometry>
        </mxCell>
        <mxCell id="exelCA2o7YdwSSAsO9UR-12" value="" style="shape=line;strokeColor=#ddeeff;strokeWidth=2;html=1;resizeWidth=1;" parent="exelCA2o7YdwSSAsO9UR-3" vertex="1">
          <mxGeometry y="1" width="141.54668674698792" height="10" relative="1" as="geometry">
            <mxPoint x="10" y="-94" as="offset" />
          </mxGeometry>
        </mxCell>
        <mxCell id="exelCA2o7YdwSSAsO9UR-13" value="New User" style="strokeWidth=1;shadow=0;dashed=0;align=center;html=1;shape=mxgraph.mockup.forms.anchor;fontSize=12;fontColor=#666666;align=left;spacingLeft=0;resizeWidth=1;" parent="exelCA2o7YdwSSAsO9UR-3" vertex="1">
          <mxGeometry y="1" width="117.9555722891566" height="20" relative="1" as="geometry">
            <mxPoint x="10" y="-76" as="offset" />
          </mxGeometry>
        </mxCell>
        <mxCell id="exelCA2o7YdwSSAsO9UR-14" value="SIGN UP" style="strokeWidth=1;shadow=0;dashed=0;align=center;html=1;shape=mxgraph.mockup.forms.rrect;rSize=5;strokeColor=none;fontColor=#ffffff;fillColor=#66bbff;fontSize=16;fontStyle=1;" parent="exelCA2o7YdwSSAsO9UR-3" vertex="1">
          <mxGeometry y="1" width="80" height="30" relative="1" as="geometry">
            <mxPoint x="20" y="-50" as="offset" />
          </mxGeometry>
        </mxCell>
        <mxCell id="exelCA2o7YdwSSAsO9UR-15" value="" style="verticalLabelPosition=bottom;verticalAlign=top;html=1;shadow=0;dashed=0;strokeWidth=1;shape=mxgraph.android.phone2;strokeColor=#c0c0c0;" parent="1" vertex="1">
          <mxGeometry x="90" y="-2030" width="230" height="410" as="geometry" />
        </mxCell>
        <mxCell id="exelCA2o7YdwSSAsO9UR-16" value="" style="verticalLabelPosition=bottom;verticalAlign=top;html=1;shadow=0;dashed=0;strokeWidth=1;shape=mxgraph.android.phone2;strokeColor=#c0c0c0;" parent="1" vertex="1">
          <mxGeometry x="440" y="-2030" width="230" height="410" as="geometry" />
        </mxCell>
        <mxCell id="exelCA2o7YdwSSAsO9UR-31" value="" style="verticalLabelPosition=bottom;shadow=0;dashed=0;align=center;html=1;verticalAlign=top;strokeWidth=1;shape=mxgraph.mockup.containers.userMale;strokeColor=#666666;strokeColor2=#008cff;" parent="1" vertex="1">
          <mxGeometry x="150" y="-1950" width="100" height="100" as="geometry" />
        </mxCell>
        <mxCell id="exelCA2o7YdwSSAsO9UR-49" value="Admin" style="text;html=1;align=center;verticalAlign=middle;resizable=0;points=[];autosize=1;strokeColor=none;fillColor=none;" parent="1" vertex="1">
          <mxGeometry x="168" y="-1812" width="60" height="30" as="geometry" />
        </mxCell>
        <mxCell id="exelCA2o7YdwSSAsO9UR-50" value="User" style="text;html=1;align=center;verticalAlign=middle;resizable=0;points=[];autosize=1;strokeColor=none;fillColor=none;" parent="1" vertex="1">
          <mxGeometry x="169" y="-1777" width="50" height="30" as="geometry" />
        </mxCell>
        <mxCell id="exelCA2o7YdwSSAsO9UR-51" value="Staff" style="text;html=1;align=center;verticalAlign=middle;resizable=0;points=[];autosize=1;strokeColor=none;fillColor=none;" parent="1" vertex="1">
          <mxGeometry x="169" y="-1742" width="50" height="30" as="geometry" />
        </mxCell>
        <mxCell id="exelCA2o7YdwSSAsO9UR-52" value="" style="verticalLabelPosition=bottom;verticalAlign=top;html=1;shadow=0;dashed=0;strokeWidth=1;shape=mxgraph.android.phone2;strokeColor=#c0c0c0;" parent="1" vertex="1">
          <mxGeometry x="90" y="-1558" width="230" height="410" as="geometry" />
        </mxCell>
        <mxCell id="exelCA2o7YdwSSAsO9UR-53" value="" style="rounded=0;whiteSpace=wrap;html=1;" parent="1" vertex="1">
          <mxGeometry x="120" y="-1240" width="40" height="30" as="geometry" />
        </mxCell>
        <mxCell id="exelCA2o7YdwSSAsO9UR-54" value="Delivery" style="rounded=0;whiteSpace=wrap;html=1;" parent="1" vertex="1">
          <mxGeometry x="110" y="-1240" width="50" height="30" as="geometry" />
        </mxCell>
        <mxCell id="exelCA2o7YdwSSAsO9UR-55" value="Dining" style="rounded=0;whiteSpace=wrap;html=1;" parent="1" vertex="1">
          <mxGeometry x="180" y="-1240" width="58" height="30" as="geometry" />
        </mxCell>
        <mxCell id="exelCA2o7YdwSSAsO9UR-57" value="Account" style="rounded=0;whiteSpace=wrap;html=1;" parent="1" vertex="1">
          <mxGeometry x="260" y="-1240" width="50" height="30" as="geometry" />
        </mxCell>
        <mxCell id="exelCA2o7YdwSSAsO9UR-61" value="" style="rounded=1;whiteSpace=wrap;html=1;" parent="1" vertex="1">
          <mxGeometry x="110" y="-1410" width="82" height="60" as="geometry" />
        </mxCell>
        <mxCell id="exelCA2o7YdwSSAsO9UR-62" value="" style="rounded=1;whiteSpace=wrap;html=1;" parent="1" vertex="1">
          <mxGeometry x="219" y="-1410" width="82" height="60" as="geometry" />
        </mxCell>
        <mxCell id="exelCA2o7YdwSSAsO9UR-75" value="" style="shape=rect;fillColor=#e0e0e0;strokeColor=none;" parent="1" vertex="1">
          <mxGeometry x="177" y="-1510" width="124" height="20" as="geometry" />
        </mxCell>
        <mxCell id="exelCA2o7YdwSSAsO9UR-76" value="" style="html=1;strokeWidth=1;shadow=0;dashed=0;shape=mxgraph.ios7ui.marginRect;rx=3;ry=3;rectMargin=5;strokeColor=none;" parent="exelCA2o7YdwSSAsO9UR-75" vertex="1">
          <mxGeometry width="124" height="20" as="geometry" />
        </mxCell>
        <mxCell id="exelCA2o7YdwSSAsO9UR-77" value="Search" style="shape=mxgraph.ios7.icons.looking_glass;strokeColor=#e0e0e0;fillColor=none;fontColor=#e0e0e0;labelPosition=right;verticalLabelPosition=middle;align=left;verticalAlign=middle;fontSize=6;fontStyle=0;spacingTop=2;sketch=0;html=1;" parent="exelCA2o7YdwSSAsO9UR-75" vertex="1">
          <mxGeometry x="0.5" y="0.5" width="6" height="6" relative="1" as="geometry">
            <mxPoint x="-17" y="-3" as="offset" />
          </mxGeometry>
        </mxCell>
        <mxCell id="exelCA2o7YdwSSAsO9UR-78" value="Home" style="text;html=1;align=center;verticalAlign=middle;resizable=0;points=[];autosize=1;strokeColor=none;fillColor=none;" parent="1" vertex="1">
          <mxGeometry x="108" y="-1515" width="60" height="30" as="geometry" />
        </mxCell>
        <mxCell id="exelCA2o7YdwSSAsO9UR-80" value="Restaurants/Home-Made" style="text;html=1;align=center;verticalAlign=middle;resizable=0;points=[];autosize=1;strokeColor=none;fillColor=none;fontSize=10;" parent="1" vertex="1">
          <mxGeometry x="95" y="-1480" width="140" height="30" as="geometry" />
        </mxCell>
        <mxCell id="exelCA2o7YdwSSAsO9UR-83" value="Location" style="whiteSpace=wrap;html=1;fontSize=10;" parent="1" vertex="1">
          <mxGeometry x="235" y="-1480" width="70" height="30" as="geometry" />
        </mxCell>
        <mxCell id="exelCA2o7YdwSSAsO9UR-108" value="&lt;br&gt;Description" style="html=1;shadow=0;dashed=0;shape=mxgraph.bootstrap.rrect;rSize=5;strokeColor=#DFDFDF;html=1;whiteSpace=wrap;fillColor=#ffffff;fontColor=#000000;verticalAlign=bottom;align=left;spacing=20;fontSize=14;" parent="1" vertex="1">
          <mxGeometry x="108" y="-1430" width="194" height="80" as="geometry" />
        </mxCell>
        <mxCell id="exelCA2o7YdwSSAsO9UR-109" value="Image cap" style="html=1;shadow=0;dashed=0;shape=mxgraph.bootstrap.topButton;rSize=5;perimeter=none;whiteSpace=wrap;fillColor=#868E96;strokeColor=#DFDFDF;fontColor=#DEE2E6;resizeWidth=1;fontSize=18;" parent="exelCA2o7YdwSSAsO9UR-108" vertex="1">
          <mxGeometry width="158.72727272727272" height="40" relative="1" as="geometry">
            <mxPoint x="10" y="5" as="offset" />
          </mxGeometry>
        </mxCell>
        <mxCell id="exelCA2o7YdwSSAsO9UR-110" value="&lt;br&gt;Description" style="html=1;shadow=0;dashed=0;shape=mxgraph.bootstrap.rrect;rSize=5;strokeColor=#DFDFDF;html=1;whiteSpace=wrap;fillColor=#ffffff;fontColor=#000000;verticalAlign=bottom;align=left;spacing=20;fontSize=14;" parent="1" vertex="1">
          <mxGeometry x="110" y="-1340" width="190" height="80" as="geometry" />
        </mxCell>
        <mxCell id="exelCA2o7YdwSSAsO9UR-111" value="Image cap" style="html=1;shadow=0;dashed=0;shape=mxgraph.bootstrap.topButton;rSize=5;perimeter=none;whiteSpace=wrap;fillColor=#868E96;strokeColor=#DFDFDF;fontColor=#DEE2E6;resizeWidth=1;fontSize=18;" parent="exelCA2o7YdwSSAsO9UR-110" vertex="1">
          <mxGeometry width="155.45454545454547" height="40" relative="1" as="geometry">
            <mxPoint x="10" y="5" as="offset" />
          </mxGeometry>
        </mxCell>
        <mxCell id="exelCA2o7YdwSSAsO9UR-112" value="" style="verticalLabelPosition=bottom;verticalAlign=top;html=1;shadow=0;dashed=0;strokeWidth=1;shape=mxgraph.android.phone2;strokeColor=#c0c0c0;gradientColor=none;" parent="1" vertex="1">
          <mxGeometry x="444.38" y="-1560" width="230" height="410" as="geometry" />
        </mxCell>
        <mxCell id="exelCA2o7YdwSSAsO9UR-113" value="" style="verticalLabelPosition=bottom;verticalAlign=top;html=1;shadow=0;dashed=0;strokeWidth=1;shape=mxgraph.android.phone2;strokeColor=#c0c0c0;" parent="1" vertex="1">
          <mxGeometry x="95" y="-1017" width="230" height="410" as="geometry" />
        </mxCell>
        <mxCell id="N9bKhg5mJBqLiLlW8YVx-1" value="Home" style="text;html=1;align=center;verticalAlign=middle;resizable=0;points=[];autosize=1;strokeColor=none;fillColor=none;" parent="1" vertex="1">
          <mxGeometry x="460" y="-1510" width="60" height="30" as="geometry" />
        </mxCell>
        <mxCell id="N9bKhg5mJBqLiLlW8YVx-2" value="" style="shape=rect;fillColor=#e0e0e0;strokeColor=none;" parent="1" vertex="1">
          <mxGeometry x="530" y="-1506" width="124" height="20" as="geometry" />
        </mxCell>
        <mxCell id="N9bKhg5mJBqLiLlW8YVx-3" value="" style="html=1;strokeWidth=1;shadow=0;dashed=0;shape=mxgraph.ios7ui.marginRect;rx=3;ry=3;rectMargin=5;strokeColor=none;" parent="N9bKhg5mJBqLiLlW8YVx-2" vertex="1">
          <mxGeometry width="124" height="20" as="geometry" />
        </mxCell>
        <mxCell id="N9bKhg5mJBqLiLlW8YVx-4" value="Search" style="shape=mxgraph.ios7.icons.looking_glass;strokeColor=#e0e0e0;fillColor=none;fontColor=#e0e0e0;labelPosition=right;verticalLabelPosition=middle;align=left;verticalAlign=middle;fontSize=6;fontStyle=0;spacingTop=2;sketch=0;html=1;" parent="N9bKhg5mJBqLiLlW8YVx-2" vertex="1">
          <mxGeometry x="0.5" y="0.5" width="6" height="6" relative="1" as="geometry">
            <mxPoint x="-17" y="-3" as="offset" />
          </mxGeometry>
        </mxCell>
        <mxCell id="N9bKhg5mJBqLiLlW8YVx-5" value="Restaurant&amp;nbsp;" style="rounded=0;whiteSpace=wrap;html=1;" parent="1" vertex="1">
          <mxGeometry x="470" y="-1460" width="180" height="60" as="geometry" />
        </mxCell>
        <mxCell id="N9bKhg5mJBqLiLlW8YVx-6" value="Restaurant&amp;nbsp;" style="rounded=0;whiteSpace=wrap;html=1;" parent="1" vertex="1">
          <mxGeometry x="470" y="-1380" width="180" height="60" as="geometry" />
        </mxCell>
        <mxCell id="N9bKhg5mJBqLiLlW8YVx-7" value="" style="rounded=0;whiteSpace=wrap;html=1;" parent="1" vertex="1">
          <mxGeometry x="471" y="-1300" width="180" height="60" as="geometry" />
        </mxCell>
        <mxCell id="N9bKhg5mJBqLiLlW8YVx-8" value="&lt;span style=&quot;color: rgb(0, 0, 0); font-family: Helvetica; font-size: 12px; font-style: normal; font-variant-ligatures: normal; font-variant-caps: normal; font-weight: 400; letter-spacing: normal; orphans: 2; text-align: center; text-indent: 0px; text-transform: none; widows: 2; word-spacing: 0px; -webkit-text-stroke-width: 0px; background-color: rgb(251, 251, 251); text-decoration-thickness: initial; text-decoration-style: initial; text-decoration-color: initial; float: none; display: inline !important;&quot;&gt;Restaurant&amp;nbsp;&lt;/span&gt;" style="text;whiteSpace=wrap;html=1;" parent="1" vertex="1">
          <mxGeometry x="522.38" y="-1290" width="100" height="40" as="geometry" />
        </mxCell>
        <mxCell id="N9bKhg5mJBqLiLlW8YVx-10" value="" style="shape=rect;fillColor=#e0e0e0;strokeColor=none;" parent="1" vertex="1">
          <mxGeometry x="150" y="-930" width="124" height="20" as="geometry" />
        </mxCell>
        <mxCell id="N9bKhg5mJBqLiLlW8YVx-11" value="" style="html=1;strokeWidth=1;shadow=0;dashed=0;shape=mxgraph.ios7ui.marginRect;rx=3;ry=3;rectMargin=5;strokeColor=none;" parent="N9bKhg5mJBqLiLlW8YVx-10" vertex="1">
          <mxGeometry width="124" height="20" as="geometry" />
        </mxCell>
        <mxCell id="N9bKhg5mJBqLiLlW8YVx-12" value="Search" style="shape=mxgraph.ios7.icons.looking_glass;strokeColor=#e0e0e0;fillColor=none;fontColor=#e0e0e0;labelPosition=right;verticalLabelPosition=middle;align=left;verticalAlign=middle;fontSize=6;fontStyle=0;spacingTop=2;sketch=0;html=1;" parent="N9bKhg5mJBqLiLlW8YVx-10" vertex="1">
          <mxGeometry x="0.5" y="0.5" width="6" height="6" relative="1" as="geometry">
            <mxPoint x="-17" y="-3" as="offset" />
          </mxGeometry>
        </mxCell>
        <mxCell id="N9bKhg5mJBqLiLlW8YVx-13" value="" style="html=1;verticalLabelPosition=bottom;align=center;labelBackgroundColor=#ffffff;verticalAlign=top;strokeWidth=2;strokeColor=#0080F0;shadow=0;dashed=0;shape=mxgraph.ios7.icons.shopping_cart;" parent="1" vertex="1">
          <mxGeometry x="270" y="-965.5" width="30" height="25.5" as="geometry" />
        </mxCell>
        <mxCell id="N9bKhg5mJBqLiLlW8YVx-14" value="Biryani&amp;nbsp; &amp;nbsp; &amp;nbsp; &amp;nbsp; &amp;nbsp; &amp;nbsp; &amp;nbsp; &amp;nbsp; &amp;nbsp; &amp;nbsp; &amp;nbsp; &amp;nbsp; &amp;nbsp; &amp;nbsp; &amp;nbsp; &amp;nbsp; &amp;nbsp; Add" style="rounded=0;whiteSpace=wrap;html=1;" parent="1" vertex="1">
          <mxGeometry x="118" y="-900" width="182" height="40" as="geometry" />
        </mxCell>
        <mxCell id="N9bKhg5mJBqLiLlW8YVx-15" value="Biryani&amp;nbsp; &amp;nbsp; &amp;nbsp; &amp;nbsp; &amp;nbsp; &amp;nbsp; &amp;nbsp; &amp;nbsp; &amp;nbsp; &amp;nbsp; &amp;nbsp; &amp;nbsp; &amp;nbsp; &amp;nbsp; &amp;nbsp; &amp;nbsp; &amp;nbsp; Add" style="rounded=0;whiteSpace=wrap;html=1;" parent="1" vertex="1">
          <mxGeometry x="118" y="-842" width="182" height="40" as="geometry" />
        </mxCell>
        <mxCell id="N9bKhg5mJBqLiLlW8YVx-16" value="Biryani&amp;nbsp; &amp;nbsp; &amp;nbsp; &amp;nbsp; &amp;nbsp; &amp;nbsp; &amp;nbsp; &amp;nbsp; &amp;nbsp; &amp;nbsp; &amp;nbsp; &amp;nbsp; &amp;nbsp; &amp;nbsp; &amp;nbsp; &amp;nbsp; &amp;nbsp; Add" style="rounded=0;whiteSpace=wrap;html=1;" parent="1" vertex="1">
          <mxGeometry x="118" y="-784" width="182" height="40" as="geometry" />
        </mxCell>
        <mxCell id="N9bKhg5mJBqLiLlW8YVx-17" value="Biryani&amp;nbsp; &amp;nbsp; &amp;nbsp; &amp;nbsp; &amp;nbsp; &amp;nbsp; &amp;nbsp; &amp;nbsp; &amp;nbsp; &amp;nbsp; &amp;nbsp; &amp;nbsp; &amp;nbsp; &amp;nbsp; &amp;nbsp; &amp;nbsp; &amp;nbsp; Add" style="rounded=0;whiteSpace=wrap;html=1;" parent="1" vertex="1">
          <mxGeometry x="118" y="-730" width="182" height="40" as="geometry" />
        </mxCell>
        <mxCell id="N9bKhg5mJBqLiLlW8YVx-18" style="edgeStyle=orthogonalEdgeStyle;rounded=0;orthogonalLoop=1;jettySize=auto;html=1;exitX=0.5;exitY=1;exitDx=0;exitDy=0;" parent="1" source="N9bKhg5mJBqLiLlW8YVx-14" target="N9bKhg5mJBqLiLlW8YVx-14" edge="1">
          <mxGeometry relative="1" as="geometry" />
        </mxCell>
        <mxCell id="N9bKhg5mJBqLiLlW8YVx-20" value="Place Order" style="rounded=0;whiteSpace=wrap;html=1;" parent="1" vertex="1">
          <mxGeometry x="149" y="-680" width="120" height="20" as="geometry" />
        </mxCell>
        <mxCell id="N9bKhg5mJBqLiLlW8YVx-21" value="" style="verticalLabelPosition=bottom;verticalAlign=top;html=1;shadow=0;dashed=0;strokeWidth=1;shape=mxgraph.android.phone2;strokeColor=#c0c0c0;" parent="1" vertex="1">
          <mxGeometry x="91.38" y="-562" width="230" height="410" as="geometry" />
        </mxCell>
        <mxCell id="N9bKhg5mJBqLiLlW8YVx-22" value="Resaturant" style="rounded=0;whiteSpace=wrap;html=1;" parent="1" vertex="1">
          <mxGeometry x="110" y="-969.81" width="130" height="34.13" as="geometry" />
        </mxCell>
        <mxCell id="N9bKhg5mJBqLiLlW8YVx-24" value="UPI" style="rounded=0;whiteSpace=wrap;html=1;" parent="1" vertex="1">
          <mxGeometry x="147" y="-405" width="120" height="40" as="geometry" />
        </mxCell>
        <mxCell id="N9bKhg5mJBqLiLlW8YVx-25" value="Cards" style="rounded=0;whiteSpace=wrap;html=1;" parent="1" vertex="1">
          <mxGeometry x="146.37" y="-347" width="120" height="42" as="geometry" />
        </mxCell>
        <mxCell id="N9bKhg5mJBqLiLlW8YVx-26" value="Crypto" style="rounded=0;whiteSpace=wrap;html=1;" parent="1" vertex="1">
          <mxGeometry x="146.37" y="-289" width="120" height="40" as="geometry" />
        </mxCell>
        <mxCell id="N9bKhg5mJBqLiLlW8YVx-27" value="COD" style="rounded=0;whiteSpace=wrap;html=1;" parent="1" vertex="1">
          <mxGeometry x="147" y="-465" width="120" height="40" as="geometry" />
        </mxCell>
        <mxCell id="N9bKhg5mJBqLiLlW8YVx-28" value="Select payment method" style="text;html=1;align=center;verticalAlign=middle;resizable=0;points=[];autosize=1;strokeColor=none;fillColor=none;" parent="1" vertex="1">
          <mxGeometry x="95.75" y="-505" width="150" height="30" as="geometry" />
        </mxCell>
        <mxCell id="Y6NEHsTp50D6RgtbADg3-1" value="" style="verticalLabelPosition=bottom;verticalAlign=top;html=1;shadow=0;dashed=0;strokeWidth=1;shape=mxgraph.android.phone2;strokeColor=#c0c0c0;" parent="1" vertex="1">
          <mxGeometry x="460" y="-560" width="230" height="410" as="geometry" />
        </mxCell>
        <mxCell id="Y6NEHsTp50D6RgtbADg3-2" value="Order&amp;nbsp; Confirmed" style="text;html=1;align=center;verticalAlign=middle;resizable=0;points=[];autosize=1;strokeColor=none;fillColor=none;" parent="1" vertex="1">
          <mxGeometry x="515" y="-365" width="120" height="30" as="geometry" />
        </mxCell>
        <mxCell id="TsJ90LMKmBE9QxqXUD7t-1" value="" style="verticalLabelPosition=bottom;verticalAlign=top;html=1;shadow=0;dashed=0;strokeWidth=1;shape=mxgraph.android.phone2;strokeColor=#c0c0c0;" vertex="1" parent="1">
          <mxGeometry x="501" y="-1040" width="230" height="410" as="geometry" />
        </mxCell>
        <mxCell id="TsJ90LMKmBE9QxqXUD7t-3" value="Item 1 * 1&amp;nbsp; &amp;nbsp; &amp;nbsp; &amp;nbsp; &amp;nbsp; &amp;nbsp; &amp;nbsp; &amp;nbsp; &amp;nbsp; &amp;nbsp; &amp;nbsp; &amp;nbsp; &amp;nbsp; &amp;nbsp; &amp;nbsp; &amp;nbsp; &amp;nbsp; $$$" style="text;html=1;align=center;verticalAlign=middle;resizable=0;points=[];autosize=1;strokeColor=none;fillColor=none;" vertex="1" parent="1">
          <mxGeometry x="513" y="-910" width="210" height="30" as="geometry" />
        </mxCell>
        <mxCell id="TsJ90LMKmBE9QxqXUD7t-8" value="Item 3 * 1&amp;nbsp; &amp;nbsp; &amp;nbsp; &amp;nbsp; &amp;nbsp; &amp;nbsp; &amp;nbsp; &amp;nbsp; &amp;nbsp; &amp;nbsp; &amp;nbsp; &amp;nbsp; &amp;nbsp; &amp;nbsp; &amp;nbsp; &amp;nbsp; &amp;nbsp; $$$" style="text;html=1;align=center;verticalAlign=middle;resizable=0;points=[];autosize=1;strokeColor=none;fillColor=none;" vertex="1" parent="1">
          <mxGeometry x="515" y="-820" width="210" height="30" as="geometry" />
        </mxCell>
        <mxCell id="TsJ90LMKmBE9QxqXUD7t-9" value="Item 2 * 1&amp;nbsp; &amp;nbsp; &amp;nbsp; &amp;nbsp; &amp;nbsp; &amp;nbsp; &amp;nbsp; &amp;nbsp; &amp;nbsp; &amp;nbsp; &amp;nbsp; &amp;nbsp; &amp;nbsp; &amp;nbsp; &amp;nbsp; &amp;nbsp; &amp;nbsp; $$$" style="text;html=1;align=center;verticalAlign=middle;resizable=0;points=[];autosize=1;strokeColor=none;fillColor=none;" vertex="1" parent="1">
          <mxGeometry x="513" y="-867" width="210" height="30" as="geometry" />
        </mxCell>
        <mxCell id="TsJ90LMKmBE9QxqXUD7t-11" value="Total Amount&amp;nbsp; &amp;nbsp; &amp;nbsp; &amp;nbsp; &amp;nbsp; &amp;nbsp; &amp;nbsp; &amp;nbsp; &amp;nbsp; &amp;nbsp; &amp;nbsp; &amp;nbsp; &amp;nbsp; &amp;nbsp; &amp;nbsp; $$$" style="text;html=1;align=center;verticalAlign=middle;resizable=0;points=[];autosize=1;strokeColor=none;fillColor=none;" vertex="1" parent="1">
          <mxGeometry x="511" y="-780" width="210" height="30" as="geometry" />
        </mxCell>
        <mxCell id="TsJ90LMKmBE9QxqXUD7t-12" value="Confirm and Pay" style="text;html=1;align=center;verticalAlign=middle;resizable=0;points=[];autosize=1;strokeColor=none;fillColor=none;" vertex="1" parent="1">
          <mxGeometry x="566" y="-730" width="110" height="30" as="geometry" />
        </mxCell>
        <mxCell id="PXJf__H6HsoUbVeddesp-4" value="" style="endArrow=none;html=1;rounded=0;exitX=0.103;exitY=-0.063;exitDx=0;exitDy=0;exitPerimeter=0;entryX=0.989;entryY=-0.039;entryDx=0;entryDy=0;entryPerimeter=0;" edge="1" parent="1" target="TsJ90LMKmBE9QxqXUD7t-11">
          <mxGeometry width="50" height="50" relative="1" as="geometry">
            <mxPoint x="519.6300000000001" y="-780.8900000000001" as="sourcePoint" />
            <mxPoint x="701" y="-781" as="targetPoint" />
          </mxGeometry>
        </mxCell>
        <mxCell id="PXJf__H6HsoUbVeddesp-5" value="" style="endArrow=none;html=1;rounded=0;exitX=0.103;exitY=-0.063;exitDx=0;exitDy=0;exitPerimeter=0;entryX=0.989;entryY=0.99;entryDx=0;entryDy=0;entryPerimeter=0;" edge="1" parent="1" target="TsJ90LMKmBE9QxqXUD7t-11">
          <mxGeometry width="50" height="50" relative="1" as="geometry">
            <mxPoint x="520.6300000000001" y="-750.8900000000001" as="sourcePoint" />
            <mxPoint x="702" y="-751" as="targetPoint" />
          </mxGeometry>
        </mxCell>
        <mxCell id="PXJf__H6HsoUbVeddesp-7" value="Order Details" style="text;html=1;align=center;verticalAlign=middle;resizable=0;points=[];autosize=1;strokeColor=none;fillColor=none;" vertex="1" parent="1">
          <mxGeometry x="571" y="-980" width="90" height="30" as="geometry" />
        </mxCell>
      </root>
    </mxGraphModel>
  </diagram>
  <diagram id="dVQyL3VpJn-8OEPAgYQG" name="Page-2">
    <mxGraphModel dx="780" dy="2704" grid="1" gridSize="10" guides="1" tooltips="1" connect="1" arrows="1" fold="1" page="1" pageScale="1" pageWidth="850" pageHeight="1100" math="0" shadow="0">
      <root>
        <mxCell id="0" />
        <mxCell id="1" parent="0" />
        <mxCell id="BXx3fhRRea8dYsxPN79T-2" value="" style="rounded=0;whiteSpace=wrap;html=1;" vertex="1" parent="1">
          <mxGeometry x="540" y="-1500" width="210" height="140" as="geometry" />
        </mxCell>
        <mxCell id="laJy7nJidTPsZQrKoZdn-3" value="User Name:" style="strokeWidth=1;shadow=0;dashed=0;align=center;html=1;shape=mxgraph.mockup.forms.anchor;fontSize=12;fontColor=#666666;align=left;resizeWidth=1;spacingLeft=0;" parent="1" vertex="1">
          <mxGeometry x="165.75" y="-1973" width="78.63704819277108" height="20" as="geometry" />
        </mxCell>
        <mxCell id="laJy7nJidTPsZQrKoZdn-4" value="Admin" style="strokeWidth=1;shadow=0;dashed=0;align=center;html=1;shape=mxgraph.mockup.forms.rrect;rSize=0;strokeColor=#999999;fontColor=#666666;align=left;spacingLeft=5;resizeWidth=1;" parent="1" vertex="1">
          <mxGeometry x="165.75" y="-1941.75" width="150" height="25" as="geometry" />
        </mxCell>
        <mxCell id="laJy7nJidTPsZQrKoZdn-5" value="Password:" style="strokeWidth=1;shadow=0;dashed=0;align=center;html=1;shape=mxgraph.mockup.forms.anchor;fontSize=12;fontColor=#666666;align=left;resizeWidth=1;spacingLeft=0;" parent="1" vertex="1">
          <mxGeometry x="165.75" y="-1905.5" width="78.63704819277108" height="20" as="geometry" />
        </mxCell>
        <mxCell id="laJy7nJidTPsZQrKoZdn-6" value="" style="strokeWidth=1;shadow=0;dashed=0;align=center;html=1;shape=mxgraph.mockup.forms.rrect;rSize=0;strokeColor=#999999;fontColor=#666666;align=left;spacingLeft=5;resizeWidth=1;" parent="1" vertex="1">
          <mxGeometry x="165.75" y="-1872.5" width="150" height="25" as="geometry" />
        </mxCell>
        <mxCell id="laJy7nJidTPsZQrKoZdn-7" value="SIGN IN" style="strokeWidth=1;shadow=0;dashed=0;align=center;html=1;shape=mxgraph.mockup.forms.rrect;rSize=5;strokeColor=none;fontColor=#ffffff;fillColor=#66bbff;fontSize=16;fontStyle=1;" parent="1" vertex="1">
          <mxGeometry x="170" y="-1830" width="70" height="30" as="geometry" />
        </mxCell>
        <mxCell id="laJy7nJidTPsZQrKoZdn-8" value="Forgot Password?" style="strokeWidth=1;shadow=0;dashed=0;align=center;html=1;shape=mxgraph.mockup.forms.anchor;fontSize=12;fontColor=#9999ff;align=left;spacingLeft=0;fontStyle=4;resizeWidth=1;" parent="1" vertex="1">
          <mxGeometry x="170" y="-1780" width="117.9555722891566" height="20" as="geometry" />
        </mxCell>
        <mxCell id="laJy7nJidTPsZQrKoZdn-10" value="" style="strokeWidth=1;shadow=0;dashed=0;align=center;html=1;shape=mxgraph.mockup.forms.anchor;fontSize=12;fontColor=#666666;align=left;spacingLeft=0;resizeWidth=1;" parent="1" vertex="1">
          <mxGeometry x="165.75" y="-1813" width="117.9555722891566" height="20" as="geometry" />
        </mxCell>
        <mxCell id="OOaepS2kRp_NU7N7x0Ia-1" value="" style="verticalLabelPosition=bottom;verticalAlign=top;html=1;shadow=0;dashed=0;strokeWidth=1;shape=mxgraph.android.phone2;strokeColor=#c0c0c0;" parent="1" vertex="1">
          <mxGeometry x="138.52" y="-2113" width="230" height="410" as="geometry" />
        </mxCell>
        <mxCell id="OOaepS2kRp_NU7N7x0Ia-2" value="" style="verticalLabelPosition=bottom;verticalAlign=top;html=1;shadow=0;dashed=0;strokeWidth=1;shape=mxgraph.android.phone2;strokeColor=#c0c0c0;" parent="1" vertex="1">
          <mxGeometry x="520" y="-2113" width="230" height="410" as="geometry" />
        </mxCell>
        <mxCell id="OOaepS2kRp_NU7N7x0Ia-3" value="Add Order" style="rounded=0;whiteSpace=wrap;html=1;" parent="1" vertex="1">
          <mxGeometry x="575" y="-2000" width="120" height="47.5" as="geometry" />
        </mxCell>
        <mxCell id="OOaepS2kRp_NU7N7x0Ia-4" value="View Order" style="rounded=0;whiteSpace=wrap;html=1;" parent="1" vertex="1">
          <mxGeometry x="575" y="-1919.75" width="120" height="47.5" as="geometry" />
        </mxCell>
        <mxCell id="OOaepS2kRp_NU7N7x0Ia-5" value="Update Order" style="rounded=0;whiteSpace=wrap;html=1;" parent="1" vertex="1">
          <mxGeometry x="575" y="-1840.5" width="120" height="47.5" as="geometry" />
        </mxCell>
        <mxCell id="OOaepS2kRp_NU7N7x0Ia-6" value="" style="verticalLabelPosition=bottom;verticalAlign=top;html=1;shadow=0;dashed=0;strokeWidth=1;shape=mxgraph.android.phone2;strokeColor=#c0c0c0;" parent="1" vertex="1">
          <mxGeometry x="138.51999999999998" y="-1630" width="230" height="410" as="geometry" />
        </mxCell>
        <mxCell id="OOaepS2kRp_NU7N7x0Ia-7" value="" style="verticalLabelPosition=bottom;verticalAlign=top;html=1;shadow=0;dashed=0;strokeWidth=1;shape=mxgraph.android.phone2;strokeColor=#c0c0c0;" parent="1" vertex="1">
          <mxGeometry x="540" y="-1170" width="230" height="410" as="geometry" />
        </mxCell>
        <mxCell id="Ol7C_cIK38GuUH6dmeUK-1" value="User1&amp;nbsp; &amp;nbsp; &amp;nbsp; &amp;nbsp; &amp;nbsp; &amp;nbsp; &amp;nbsp; &amp;nbsp; &amp;nbsp; &amp;nbsp; &amp;nbsp; &amp;nbsp; &amp;nbsp; &amp;nbsp; &amp;nbsp; &amp;nbsp; &amp;nbsp; Add" style="whiteSpace=wrap;html=1;" parent="1" vertex="1">
          <mxGeometry x="160" y="-1550" width="180" height="60" as="geometry" />
        </mxCell>
        <mxCell id="Ol7C_cIK38GuUH6dmeUK-2" value="" style="verticalLabelPosition=bottom;shadow=0;dashed=0;align=center;html=1;verticalAlign=top;strokeWidth=1;shape=mxgraph.mockup.containers.userMale;strokeColor=#666666;strokeColor2=#008cff;" parent="1" vertex="1">
          <mxGeometry x="223.52" y="-2060" width="66.48" height="60" as="geometry" />
        </mxCell>
        <mxCell id="Ol7C_cIK38GuUH6dmeUK-6" value="User1" style="whiteSpace=wrap;html=1;" parent="1" vertex="1">
          <mxGeometry x="560" y="-1082" width="190" height="60" as="geometry" />
        </mxCell>
        <mxCell id="Ol7C_cIK38GuUH6dmeUK-8" value="View Order" style="text;html=1;align=center;verticalAlign=middle;resizable=0;points=[];autosize=1;strokeColor=none;fillColor=none;" parent="1" vertex="1">
          <mxGeometry x="613" y="-1132" width="80" height="30" as="geometry" />
        </mxCell>
        <mxCell id="Ol7C_cIK38GuUH6dmeUK-9" value="Order 1" style="whiteSpace=wrap;html=1;" parent="1" vertex="1">
          <mxGeometry x="580" y="-1010" width="120" height="60" as="geometry" />
        </mxCell>
        <mxCell id="Ol7C_cIK38GuUH6dmeUK-11" value="Order 1" style="whiteSpace=wrap;html=1;" parent="1" vertex="1">
          <mxGeometry x="580" y="-940" width="120" height="60" as="geometry" />
        </mxCell>
        <mxCell id="Ol7C_cIK38GuUH6dmeUK-12" value="Order 1" style="whiteSpace=wrap;html=1;" parent="1" vertex="1">
          <mxGeometry x="580" y="-870" width="120" height="60" as="geometry" />
        </mxCell>
        <mxCell id="Ol7C_cIK38GuUH6dmeUK-13" value="" style="verticalLabelPosition=bottom;verticalAlign=top;html=1;shadow=0;dashed=0;strokeWidth=1;shape=mxgraph.android.phone2;strokeColor=#c0c0c0;" parent="1" vertex="1">
          <mxGeometry x="542.52" y="-689" width="230" height="410" as="geometry" />
        </mxCell>
        <mxCell id="Ol7C_cIK38GuUH6dmeUK-14" value="Order&amp;nbsp; &amp;nbsp; &amp;nbsp; &amp;nbsp; &amp;nbsp; &amp;nbsp; &amp;nbsp; &amp;nbsp; &amp;nbsp; &amp;nbsp; &amp;nbsp; &amp;nbsp; &amp;nbsp; &amp;nbsp; &amp;nbsp; Edit" style="whiteSpace=wrap;html=1;" parent="1" vertex="1">
          <mxGeometry x="563.3" y="-599" width="194.93" height="60" as="geometry" />
        </mxCell>
        <mxCell id="Ol7C_cIK38GuUH6dmeUK-15" value="Update Order" style="text;html=1;align=center;verticalAlign=middle;resizable=0;points=[];autosize=1;strokeColor=none;fillColor=none;" parent="1" vertex="1">
          <mxGeometry x="607.52" y="-649" width="100" height="30" as="geometry" />
        </mxCell>
        <mxCell id="UEf8GW-6tVRHmxdCz4Ck-1" value="Add Order" style="text;html=1;align=center;verticalAlign=middle;resizable=0;points=[];autosize=1;strokeColor=none;fillColor=none;" parent="1" vertex="1">
          <mxGeometry x="207" y="-1592" width="80" height="30" as="geometry" />
        </mxCell>
        <mxCell id="UEf8GW-6tVRHmxdCz4Ck-2" value="User2&amp;nbsp; &amp;nbsp; &amp;nbsp; &amp;nbsp; &amp;nbsp; &amp;nbsp; &amp;nbsp; &amp;nbsp; &amp;nbsp; &amp;nbsp; &amp;nbsp; &amp;nbsp; &amp;nbsp; &amp;nbsp; &amp;nbsp; &amp;nbsp; &amp;nbsp;Add" style="whiteSpace=wrap;html=1;" parent="1" vertex="1">
          <mxGeometry x="160" y="-1480" width="180" height="60" as="geometry" />
        </mxCell>
        <mxCell id="UEf8GW-6tVRHmxdCz4Ck-3" value="User3&amp;nbsp; &amp;nbsp; &amp;nbsp; &amp;nbsp; &amp;nbsp; &amp;nbsp; &amp;nbsp; &amp;nbsp; &amp;nbsp; &amp;nbsp; &amp;nbsp; &amp;nbsp; &amp;nbsp; &amp;nbsp; &amp;nbsp; &amp;nbsp; &amp;nbsp;Add" style="whiteSpace=wrap;html=1;" parent="1" vertex="1">
          <mxGeometry x="160" y="-1410" width="180" height="60" as="geometry" />
        </mxCell>
        <mxCell id="UEf8GW-6tVRHmxdCz4Ck-4" value="User&amp;nbsp; &amp;nbsp; &amp;nbsp; &amp;nbsp; &amp;nbsp; &amp;nbsp; &amp;nbsp; &amp;nbsp; &amp;nbsp; &amp;nbsp; &amp;nbsp; &amp;nbsp; &amp;nbsp; &amp;nbsp; &amp;nbsp; &amp;nbsp; &amp;nbsp; Add" style="whiteSpace=wrap;html=1;" parent="1" vertex="1">
          <mxGeometry x="160" y="-1340" width="180" height="60" as="geometry" />
        </mxCell>
        <mxCell id="UEf8GW-6tVRHmxdCz4Ck-7" value="User2" style="whiteSpace=wrap;html=1;" parent="1" vertex="1">
          <mxGeometry x="560" y="-1010" width="190" height="60" as="geometry" />
        </mxCell>
        <mxCell id="UEf8GW-6tVRHmxdCz4Ck-8" value="User3" style="whiteSpace=wrap;html=1;" parent="1" vertex="1">
          <mxGeometry x="560" y="-940" width="190" height="60" as="geometry" />
        </mxCell>
        <mxCell id="UEf8GW-6tVRHmxdCz4Ck-9" value="User4" style="whiteSpace=wrap;html=1;" parent="1" vertex="1">
          <mxGeometry x="560" y="-870" width="190" height="60" as="geometry" />
        </mxCell>
        <mxCell id="UEf8GW-6tVRHmxdCz4Ck-10" value="Order&amp;nbsp; &amp;nbsp; &amp;nbsp; &amp;nbsp; &amp;nbsp; &amp;nbsp; &amp;nbsp; &amp;nbsp; &amp;nbsp; &amp;nbsp; &amp;nbsp; &amp;nbsp; &amp;nbsp; &amp;nbsp; &amp;nbsp;Edit" style="whiteSpace=wrap;html=1;" parent="1" vertex="1">
          <mxGeometry x="563.3" y="-529" width="194.93" height="60" as="geometry" />
        </mxCell>
        <mxCell id="UEf8GW-6tVRHmxdCz4Ck-11" value="Order&amp;nbsp; &amp;nbsp; &amp;nbsp; &amp;nbsp; &amp;nbsp; &amp;nbsp; &amp;nbsp; &amp;nbsp; &amp;nbsp; &amp;nbsp; &amp;nbsp; &amp;nbsp; &amp;nbsp; &amp;nbsp; &amp;nbsp; Edit" style="whiteSpace=wrap;html=1;" parent="1" vertex="1">
          <mxGeometry x="563.3" y="-459" width="194.93" height="60" as="geometry" />
        </mxCell>
        <mxCell id="UEf8GW-6tVRHmxdCz4Ck-12" value="Order&amp;nbsp; &amp;nbsp; &amp;nbsp; &amp;nbsp; &amp;nbsp; &amp;nbsp; &amp;nbsp; &amp;nbsp; &amp;nbsp; &amp;nbsp; &amp;nbsp; &amp;nbsp; &amp;nbsp; &amp;nbsp; &amp;nbsp; Edit" style="whiteSpace=wrap;html=1;" parent="1" vertex="1">
          <mxGeometry x="563.3" y="-389" width="194.93" height="60" as="geometry" />
        </mxCell>
        <mxCell id="RCxCrb5MkZfW6aZ6QUNF-1" value="Home" style="text;html=1;align=center;verticalAlign=middle;resizable=0;points=[];autosize=1;strokeColor=none;fillColor=none;" parent="1" vertex="1">
          <mxGeometry x="150" y="-1592" width="60" height="30" as="geometry" />
        </mxCell>
        <mxCell id="RCxCrb5MkZfW6aZ6QUNF-2" value="Home" style="text;html=1;align=center;verticalAlign=middle;resizable=0;points=[];autosize=1;strokeColor=none;fillColor=none;" parent="1" vertex="1">
          <mxGeometry x="547.52" y="-649" width="60" height="30" as="geometry" />
        </mxCell>
        <mxCell id="RCxCrb5MkZfW6aZ6QUNF-3" value="Home" style="text;html=1;align=center;verticalAlign=middle;resizable=0;points=[];autosize=1;strokeColor=none;fillColor=none;" parent="1" vertex="1">
          <mxGeometry x="550" y="-1132" width="60" height="30" as="geometry" />
        </mxCell>
        <mxCell id="FPM9GpfCXbkQldr15RPd-1" value="" style="shape=rect;fillColor=#e0e0e0;strokeColor=none;" parent="1" vertex="1">
          <mxGeometry x="290" y="-1588" width="60" height="20" as="geometry" />
        </mxCell>
        <mxCell id="FPM9GpfCXbkQldr15RPd-2" value="" style="html=1;strokeWidth=1;shadow=0;dashed=0;shape=mxgraph.ios7ui.marginRect;rx=3;ry=3;rectMargin=5;strokeColor=none;" parent="FPM9GpfCXbkQldr15RPd-1" vertex="1">
          <mxGeometry width="60" height="20" as="geometry" />
        </mxCell>
        <mxCell id="FPM9GpfCXbkQldr15RPd-3" value="Search" style="shape=mxgraph.ios7.icons.looking_glass;strokeColor=#e0e0e0;fillColor=none;fontColor=#e0e0e0;labelPosition=right;verticalLabelPosition=middle;align=left;verticalAlign=middle;fontSize=6;fontStyle=0;spacingTop=2;sketch=0;html=1;" parent="FPM9GpfCXbkQldr15RPd-1" vertex="1">
          <mxGeometry x="0.5" y="0.5" width="6" height="6" relative="1" as="geometry">
            <mxPoint x="-17" y="-3" as="offset" />
          </mxGeometry>
        </mxCell>
        <mxCell id="FPM9GpfCXbkQldr15RPd-5" value="" style="shape=rect;fillColor=#e0e0e0;strokeColor=none;" parent="1" vertex="1">
          <mxGeometry x="704" y="-644" width="60" height="20" as="geometry" />
        </mxCell>
        <mxCell id="FPM9GpfCXbkQldr15RPd-6" value="" style="html=1;strokeWidth=1;shadow=0;dashed=0;shape=mxgraph.ios7ui.marginRect;rx=3;ry=3;rectMargin=5;strokeColor=none;" parent="FPM9GpfCXbkQldr15RPd-5" vertex="1">
          <mxGeometry width="60" height="20" as="geometry" />
        </mxCell>
        <mxCell id="FPM9GpfCXbkQldr15RPd-7" value="Search" style="shape=mxgraph.ios7.icons.looking_glass;strokeColor=#e0e0e0;fillColor=none;fontColor=#e0e0e0;labelPosition=right;verticalLabelPosition=middle;align=left;verticalAlign=middle;fontSize=6;fontStyle=0;spacingTop=2;sketch=0;html=1;" parent="FPM9GpfCXbkQldr15RPd-5" vertex="1">
          <mxGeometry x="0.5" y="0.5" width="6" height="6" relative="1" as="geometry">
            <mxPoint x="-17" y="-3" as="offset" />
          </mxGeometry>
        </mxCell>
        <mxCell id="FPM9GpfCXbkQldr15RPd-8" value="" style="shape=rect;fillColor=#e0e0e0;strokeColor=none;" parent="1" vertex="1">
          <mxGeometry x="697" y="-1128" width="60" height="20" as="geometry" />
        </mxCell>
        <mxCell id="FPM9GpfCXbkQldr15RPd-9" value="" style="html=1;strokeWidth=1;shadow=0;dashed=0;shape=mxgraph.ios7ui.marginRect;rx=3;ry=3;rectMargin=5;strokeColor=none;" parent="FPM9GpfCXbkQldr15RPd-8" vertex="1">
          <mxGeometry width="60" height="20" as="geometry" />
        </mxCell>
        <mxCell id="FPM9GpfCXbkQldr15RPd-10" value="Search" style="shape=mxgraph.ios7.icons.looking_glass;strokeColor=#e0e0e0;fillColor=none;fontColor=#e0e0e0;labelPosition=right;verticalLabelPosition=middle;align=left;verticalAlign=middle;fontSize=6;fontStyle=0;spacingTop=2;sketch=0;html=1;" parent="FPM9GpfCXbkQldr15RPd-8" vertex="1">
          <mxGeometry x="0.5" y="0.5" width="6" height="6" relative="1" as="geometry">
            <mxPoint x="-17" y="-3" as="offset" />
          </mxGeometry>
        </mxCell>
        <mxCell id="sRLIhkNiX7Ti4rLL33Es-1" value="Status" style="rounded=1;fillColor=#253858;strokeColor=none;html=1;fontColor=#ffffff;align=left;fontSize=12;spacingLeft=10;sketch=0;hachureGap=4;pointerEvents=0;fontFamily=Architects Daughter;fontSource=https%3A%2F%2Ffonts.googleapis.com%2Fcss%3Ffamily%3DArchitects%2BDaughter;" vertex="1" parent="1">
          <mxGeometry x="657" y="-581.25" width="91" height="26.5" as="geometry" />
        </mxCell>
        <mxCell id="sRLIhkNiX7Ti4rLL33Es-2" value="" style="shape=triangle;direction=south;fillColor=#ffffff;strokeColor=none;html=1;sketch=1;hachureGap=4;pointerEvents=0;fontFamily=Architects Daughter;fontSource=https%3A%2F%2Ffonts.googleapis.com%2Fcss%3Ffamily%3DArchitects%2BDaughter;fontSize=20;" vertex="1" parent="sRLIhkNiX7Ti4rLL33Es-1">
          <mxGeometry x="1" y="0.5" width="12" height="6" relative="1" as="geometry">
            <mxPoint x="-20" y="-3" as="offset" />
          </mxGeometry>
        </mxCell>
        <mxCell id="vleouXjM8vQ5qjpZX74b-1" value="" style="rounded=1;fillColor=#ffffff;strokeColor=#DFE1E5;shadow=1;html=1;arcSize=4;sketch=1;hachureGap=4;pointerEvents=0;fontFamily=Architects Daughter;fontSource=https%3A%2F%2Ffonts.googleapis.com%2Fcss%3Ffamily%3DArchitects%2BDaughter;fontSize=20;" vertex="1" parent="1">
          <mxGeometry x="654" y="-559" width="97.62" height="106.75" as="geometry" />
        </mxCell>
        <mxCell id="vleouXjM8vQ5qjpZX74b-2" value="Onprocess" style="rounded=0;fillColor=#F4F5F7;strokeColor=none;shadow=0;html=1;align=left;fontSize=12;spacingLeft=10;fontColor=#253858;resizeWidth=1;sketch=1;hachureGap=4;pointerEvents=0;fontFamily=Architects Daughter;fontSource=https%3A%2F%2Ffonts.googleapis.com%2Fcss%3Ffamily%3DArchitects%2BDaughter;" vertex="1" parent="vleouXjM8vQ5qjpZX74b-1">
          <mxGeometry width="97.62" height="30" relative="1" as="geometry">
            <mxPoint y="6" as="offset" />
          </mxGeometry>
        </mxCell>
        <mxCell id="vleouXjM8vQ5qjpZX74b-3" value="Completed" style="rounded=0;fillColor=none;strokeColor=none;shadow=0;html=1;align=left;fontSize=12;spacingLeft=10;fontColor=#253858;resizeWidth=1;sketch=1;hachureGap=4;pointerEvents=0;fontFamily=Architects Daughter;fontSource=https%3A%2F%2Ffonts.googleapis.com%2Fcss%3Ffamily%3DArchitects%2BDaughter;" vertex="1" parent="vleouXjM8vQ5qjpZX74b-1">
          <mxGeometry width="97.62" height="33" relative="1" as="geometry">
            <mxPoint y="39" as="offset" />
          </mxGeometry>
        </mxCell>
        <mxCell id="vleouXjM8vQ5qjpZX74b-4" value="Closed" style="rounded=0;fillColor=none;strokeColor=none;shadow=0;html=1;align=left;fontSize=12;spacingLeft=10;fontColor=#253858;resizeWidth=1;sketch=1;hachureGap=4;pointerEvents=0;fontFamily=Architects Daughter;fontSource=https%3A%2F%2Ffonts.googleapis.com%2Fcss%3Ffamily%3DArchitects%2BDaughter;" vertex="1" parent="vleouXjM8vQ5qjpZX74b-1">
          <mxGeometry width="97.62" height="33" relative="1" as="geometry">
            <mxPoint y="72" as="offset" />
          </mxGeometry>
        </mxCell>
        <mxCell id="JSsz5KSZ6-bd7-gVNgcK-1" value="" style="verticalLabelPosition=bottom;verticalAlign=top;html=1;shadow=0;dashed=0;strokeWidth=1;shape=mxgraph.android.phone2;strokeColor=#c0c0c0;" vertex="1" parent="1">
          <mxGeometry x="530" y="-1630" width="230" height="410" as="geometry" />
        </mxCell>
        <mxCell id="JSsz5KSZ6-bd7-gVNgcK-3" value="User1" style="text;html=1;align=center;verticalAlign=middle;resizable=0;points=[];autosize=1;strokeColor=none;fillColor=none;" vertex="1" parent="1">
          <mxGeometry x="612" y="-1540" width="60" height="30" as="geometry" />
        </mxCell>
        <mxCell id="A6-PH5NQCYNzaOGiAZdQ-1" value="Item 1 * 1&amp;nbsp; &amp;nbsp; &amp;nbsp; &amp;nbsp; &amp;nbsp; &amp;nbsp; &amp;nbsp; &amp;nbsp; &amp;nbsp; &amp;nbsp; &amp;nbsp; &amp;nbsp; &amp;nbsp; &amp;nbsp; &amp;nbsp; &amp;nbsp; &amp;nbsp; $$$" style="text;html=1;align=center;verticalAlign=middle;resizable=0;points=[];autosize=1;strokeColor=none;fillColor=none;" vertex="1" parent="1">
          <mxGeometry x="536" y="-1480" width="210" height="30" as="geometry" />
        </mxCell>
        <mxCell id="A6-PH5NQCYNzaOGiAZdQ-2" value="Item 3 * 1&amp;nbsp; &amp;nbsp; &amp;nbsp; &amp;nbsp; &amp;nbsp; &amp;nbsp; &amp;nbsp; &amp;nbsp; &amp;nbsp; &amp;nbsp; &amp;nbsp; &amp;nbsp; &amp;nbsp; &amp;nbsp; &amp;nbsp; &amp;nbsp; &amp;nbsp; $$$" style="text;html=1;align=center;verticalAlign=middle;resizable=0;points=[];autosize=1;strokeColor=none;fillColor=none;" vertex="1" parent="1">
          <mxGeometry x="535" y="-1390" width="210" height="30" as="geometry" />
        </mxCell>
        <mxCell id="A6-PH5NQCYNzaOGiAZdQ-3" value="Item 2 * 1&amp;nbsp; &amp;nbsp; &amp;nbsp; &amp;nbsp; &amp;nbsp; &amp;nbsp; &amp;nbsp; &amp;nbsp; &amp;nbsp; &amp;nbsp; &amp;nbsp; &amp;nbsp; &amp;nbsp; &amp;nbsp; &amp;nbsp; &amp;nbsp; &amp;nbsp; $$$" style="text;html=1;align=center;verticalAlign=middle;resizable=0;points=[];autosize=1;strokeColor=none;fillColor=none;" vertex="1" parent="1">
          <mxGeometry x="533" y="-1437" width="210" height="30" as="geometry" />
        </mxCell>
        <mxCell id="A6-PH5NQCYNzaOGiAZdQ-5" value="Accept" style="text;html=1;align=center;verticalAlign=middle;resizable=0;points=[];autosize=1;strokeColor=none;fillColor=none;" vertex="1" parent="1">
          <mxGeometry x="570" y="-1350" width="60" height="30" as="geometry" />
        </mxCell>
        <mxCell id="Qzkj-Sszl9MuITRECYH9-1" value="Accept" style="rounded=0;whiteSpace=wrap;html=1;fillColor=#3fea10;" vertex="1" parent="1">
          <mxGeometry x="558" y="-1340" width="70" height="20" as="geometry" />
        </mxCell>
        <mxCell id="BXx3fhRRea8dYsxPN79T-1" value="Decline" style="rounded=0;whiteSpace=wrap;html=1;fillColor=#f41010;" vertex="1" parent="1">
          <mxGeometry x="661" y="-1340" width="70" height="20" as="geometry" />
        </mxCell>
        <mxCell id="BXx3fhRRea8dYsxPN79T-3" value="" style="verticalLabelPosition=bottom;verticalAlign=top;html=1;shadow=0;dashed=0;strokeWidth=1;shape=mxgraph.android.phone2;strokeColor=#c0c0c0;" vertex="1" parent="1">
          <mxGeometry x="141.76" y="-1170" width="230" height="410" as="geometry" />
        </mxCell>
        <mxCell id="BXx3fhRRea8dYsxPN79T-4" value="Order Accepted" style="text;html=1;align=center;verticalAlign=middle;resizable=0;points=[];autosize=1;strokeColor=none;fillColor=none;" vertex="1" parent="1">
          <mxGeometry x="200" y="-980" width="110" height="30" as="geometry" />
        </mxCell>
        <mxCell id="BXx3fhRRea8dYsxPN79T-6" value="Home" style="text;html=1;align=center;verticalAlign=middle;resizable=0;points=[];autosize=1;strokeColor=none;fillColor=none;" vertex="1" parent="1">
          <mxGeometry x="150" y="-1133" width="60" height="30" as="geometry" />
        </mxCell>
        <mxCell id="6boVgYnWOIgM667kL_02-1" value="" style="rounded=0;whiteSpace=wrap;html=1;" vertex="1" parent="1">
          <mxGeometry x="151.76" y="-547.75" width="210" height="140" as="geometry" />
        </mxCell>
        <mxCell id="6boVgYnWOIgM667kL_02-2" value="" style="verticalLabelPosition=bottom;verticalAlign=top;html=1;shadow=0;dashed=0;strokeWidth=1;shape=mxgraph.android.phone2;strokeColor=#c0c0c0;" vertex="1" parent="1">
          <mxGeometry x="141.76" y="-685.75" width="230" height="410" as="geometry" />
        </mxCell>
        <mxCell id="6boVgYnWOIgM667kL_02-3" value="User1" style="text;html=1;align=center;verticalAlign=middle;resizable=0;points=[];autosize=1;strokeColor=none;fillColor=none;" vertex="1" parent="1">
          <mxGeometry x="223.76" y="-595.75" width="60" height="30" as="geometry" />
        </mxCell>
        <mxCell id="6boVgYnWOIgM667kL_02-4" value="Item 1 * 1&amp;nbsp; &amp;nbsp; &amp;nbsp; &amp;nbsp; &amp;nbsp; &amp;nbsp; &amp;nbsp; &amp;nbsp; &amp;nbsp; &amp;nbsp; &amp;nbsp; &amp;nbsp; &amp;nbsp; &amp;nbsp; &amp;nbsp; &amp;nbsp; &amp;nbsp; $$$" style="text;html=1;align=center;verticalAlign=middle;resizable=0;points=[];autosize=1;strokeColor=none;fillColor=none;" vertex="1" parent="1">
          <mxGeometry x="151.76" y="-539" width="210" height="30" as="geometry" />
        </mxCell>
        <mxCell id="6boVgYnWOIgM667kL_02-5" value="Item 3 * 1&amp;nbsp; &amp;nbsp; &amp;nbsp; &amp;nbsp; &amp;nbsp; &amp;nbsp; &amp;nbsp; &amp;nbsp; &amp;nbsp; &amp;nbsp; &amp;nbsp; &amp;nbsp; &amp;nbsp; &amp;nbsp; &amp;nbsp; &amp;nbsp; &amp;nbsp; $$$" style="text;html=1;align=center;verticalAlign=middle;resizable=0;points=[];autosize=1;strokeColor=none;fillColor=none;" vertex="1" parent="1">
          <mxGeometry x="146.76" y="-445.75" width="210" height="30" as="geometry" />
        </mxCell>
        <mxCell id="6boVgYnWOIgM667kL_02-6" value="Item 2 * 1&amp;nbsp; &amp;nbsp; &amp;nbsp; &amp;nbsp; &amp;nbsp; &amp;nbsp; &amp;nbsp; &amp;nbsp; &amp;nbsp; &amp;nbsp; &amp;nbsp; &amp;nbsp; &amp;nbsp; &amp;nbsp; &amp;nbsp; &amp;nbsp; &amp;nbsp; $$$" style="text;html=1;align=center;verticalAlign=middle;resizable=0;points=[];autosize=1;strokeColor=none;fillColor=none;" vertex="1" parent="1">
          <mxGeometry x="144.76" y="-492.75" width="210" height="30" as="geometry" />
        </mxCell>
        <mxCell id="6boVgYnWOIgM667kL_02-10" value="Home" style="text;html=1;align=center;verticalAlign=middle;resizable=0;points=[];autosize=1;strokeColor=none;fillColor=none;" vertex="1" parent="1">
          <mxGeometry x="151.76" y="-649" width="60" height="30" as="geometry" />
        </mxCell>
      </root>
    </mxGraphModel>
  </diagram>
  <diagram id="xRhPHvlRrM0-bC1pfKR7" name="Page-3">
    <mxGraphModel dx="743" dy="2680" grid="1" gridSize="10" guides="1" tooltips="1" connect="1" arrows="1" fold="1" page="1" pageScale="1" pageWidth="850" pageHeight="1100" math="0" shadow="0">
      <root>
        <mxCell id="0" />
        <mxCell id="1" parent="0" />
        <mxCell id="1A1FS993M2YEMw2JC7N5-1" value="" style="strokeWidth=1;shadow=0;dashed=0;align=center;html=1;shape=mxgraph.mockup.forms.rrect;rSize=0;strokeColor=#999999;fillColor=#ffffff;" parent="1" vertex="1">
          <mxGeometry x="56.75" y="-1994" width="221.25" height="344" as="geometry" />
        </mxCell>
        <mxCell id="1A1FS993M2YEMw2JC7N5-2" value="Sign In" style="strokeWidth=1;shadow=0;dashed=0;align=center;html=1;shape=mxgraph.mockup.forms.anchor;fontSize=12;fontColor=#666666;align=left;resizeWidth=1;spacingLeft=0;" parent="1A1FS993M2YEMw2JC7N5-1" vertex="1">
          <mxGeometry width="78.63704819277108" height="20" relative="1" as="geometry">
            <mxPoint x="10" y="13" as="offset" />
          </mxGeometry>
        </mxCell>
        <mxCell id="1A1FS993M2YEMw2JC7N5-3" value="" style="shape=line;strokeColor=#ddeeff;strokeWidth=2;html=1;resizeWidth=1;" parent="1A1FS993M2YEMw2JC7N5-1" vertex="1">
          <mxGeometry width="141.54668674698792" height="10" relative="1" as="geometry">
            <mxPoint x="10" y="30" as="offset" />
          </mxGeometry>
        </mxCell>
        <mxCell id="1A1FS993M2YEMw2JC7N5-4" value="User Name:" style="strokeWidth=1;shadow=0;dashed=0;align=center;html=1;shape=mxgraph.mockup.forms.anchor;fontSize=12;fontColor=#666666;align=left;resizeWidth=1;spacingLeft=0;" parent="1A1FS993M2YEMw2JC7N5-1" vertex="1">
          <mxGeometry width="78.63704819277108" height="20" relative="1" as="geometry">
            <mxPoint x="10" y="47" as="offset" />
          </mxGeometry>
        </mxCell>
        <mxCell id="1A1FS993M2YEMw2JC7N5-5" value="" style="strokeWidth=1;shadow=0;dashed=0;align=center;html=1;shape=mxgraph.mockup.forms.rrect;rSize=0;strokeColor=#999999;fontColor=#666666;align=left;spacingLeft=5;resizeWidth=1;" parent="1A1FS993M2YEMw2JC7N5-1" vertex="1">
          <mxGeometry width="150" height="25" relative="1" as="geometry">
            <mxPoint x="10" y="67" as="offset" />
          </mxGeometry>
        </mxCell>
        <mxCell id="1A1FS993M2YEMw2JC7N5-6" value="Password:" style="strokeWidth=1;shadow=0;dashed=0;align=center;html=1;shape=mxgraph.mockup.forms.anchor;fontSize=12;fontColor=#666666;align=left;resizeWidth=1;spacingLeft=0;" parent="1A1FS993M2YEMw2JC7N5-1" vertex="1">
          <mxGeometry width="78.63704819277108" height="20" relative="1" as="geometry">
            <mxPoint x="10" y="108" as="offset" />
          </mxGeometry>
        </mxCell>
        <mxCell id="1A1FS993M2YEMw2JC7N5-7" value="" style="strokeWidth=1;shadow=0;dashed=0;align=center;html=1;shape=mxgraph.mockup.forms.rrect;rSize=0;strokeColor=#999999;fontColor=#666666;align=left;spacingLeft=5;resizeWidth=1;" parent="1A1FS993M2YEMw2JC7N5-1" vertex="1">
          <mxGeometry width="150" height="25" relative="1" as="geometry">
            <mxPoint x="10" y="138" as="offset" />
          </mxGeometry>
        </mxCell>
        <mxCell id="1A1FS993M2YEMw2JC7N5-8" value="SIGN IN" style="strokeWidth=1;shadow=0;dashed=0;align=center;html=1;shape=mxgraph.mockup.forms.rrect;rSize=5;strokeColor=none;fontColor=#ffffff;fillColor=#66bbff;fontSize=16;fontStyle=1;" parent="1A1FS993M2YEMw2JC7N5-1" vertex="1">
          <mxGeometry y="1" width="80" height="29" relative="1" as="geometry">
            <mxPoint x="20" y="-165" as="offset" />
          </mxGeometry>
        </mxCell>
        <mxCell id="1A1FS993M2YEMw2JC7N5-9" value="Forgot Password?" style="strokeWidth=1;shadow=0;dashed=0;align=center;html=1;shape=mxgraph.mockup.forms.anchor;fontSize=12;fontColor=#9999ff;align=left;spacingLeft=0;fontStyle=4;resizeWidth=1;" parent="1A1FS993M2YEMw2JC7N5-1" vertex="1">
          <mxGeometry y="1" width="117.9555722891566" height="20" relative="1" as="geometry">
            <mxPoint x="10" y="-118" as="offset" />
          </mxGeometry>
        </mxCell>
        <mxCell id="1A1FS993M2YEMw2JC7N5-10" value="" style="shape=line;strokeColor=#ddeeff;strokeWidth=2;html=1;resizeWidth=1;" parent="1A1FS993M2YEMw2JC7N5-1" vertex="1">
          <mxGeometry y="1" width="141.54668674698792" height="10" relative="1" as="geometry">
            <mxPoint x="10" y="-94" as="offset" />
          </mxGeometry>
        </mxCell>
        <mxCell id="1A1FS993M2YEMw2JC7N5-11" value="New User" style="strokeWidth=1;shadow=0;dashed=0;align=center;html=1;shape=mxgraph.mockup.forms.anchor;fontSize=12;fontColor=#666666;align=left;spacingLeft=0;resizeWidth=1;" parent="1A1FS993M2YEMw2JC7N5-1" vertex="1">
          <mxGeometry y="1" width="117.9555722891566" height="20" relative="1" as="geometry">
            <mxPoint x="10" y="-76" as="offset" />
          </mxGeometry>
        </mxCell>
        <mxCell id="1A1FS993M2YEMw2JC7N5-12" value="SIGN UP" style="strokeWidth=1;shadow=0;dashed=0;align=center;html=1;shape=mxgraph.mockup.forms.rrect;rSize=5;strokeColor=none;fontColor=#ffffff;fillColor=#66bbff;fontSize=16;fontStyle=1;" parent="1A1FS993M2YEMw2JC7N5-1" vertex="1">
          <mxGeometry y="1" width="80" height="30" relative="1" as="geometry">
            <mxPoint x="20" y="-50" as="offset" />
          </mxGeometry>
        </mxCell>
        <mxCell id="1A1FS993M2YEMw2JC7N5-13" value="" style="verticalLabelPosition=bottom;verticalAlign=top;html=1;shadow=0;dashed=0;strokeWidth=1;shape=mxgraph.android.phone2;strokeColor=#c0c0c0;" parent="1" vertex="1">
          <mxGeometry x="48" y="-2030" width="230" height="410" as="geometry" />
        </mxCell>
        <mxCell id="1A1FS993M2YEMw2JC7N5-14" value="" style="verticalLabelPosition=bottom;verticalAlign=top;html=1;shadow=0;dashed=0;strokeWidth=1;shape=mxgraph.android.phone2;strokeColor=#c0c0c0;" parent="1" vertex="1">
          <mxGeometry x="410" y="-2027" width="230" height="410" as="geometry" />
        </mxCell>
        <mxCell id="1A1FS993M2YEMw2JC7N5-15" value="Assigned Order" style="rounded=0;whiteSpace=wrap;html=1;" parent="1" vertex="1">
          <mxGeometry x="460" y="-1910" width="120" height="60" as="geometry" />
        </mxCell>
        <mxCell id="1A1FS993M2YEMw2JC7N5-16" value="Update Order Status" style="rounded=0;whiteSpace=wrap;html=1;" parent="1" vertex="1">
          <mxGeometry x="460" y="-1820" width="120" height="60" as="geometry" />
        </mxCell>
        <mxCell id="1A1FS993M2YEMw2JC7N5-17" value="Serach Order" style="rounded=0;whiteSpace=wrap;html=1;" parent="1" vertex="1">
          <mxGeometry x="460" y="-1740" width="120" height="60" as="geometry" />
        </mxCell>
        <mxCell id="1A1FS993M2YEMw2JC7N5-19" value="" style="verticalLabelPosition=bottom;verticalAlign=top;html=1;shadow=0;dashed=0;strokeWidth=1;shape=mxgraph.android.phone2;strokeColor=#c0c0c0;" parent="1" vertex="1">
          <mxGeometry x="52.38" y="-1530" width="230" height="410" as="geometry" />
        </mxCell>
        <mxCell id="F8wagsp4N3j23Xj3qt45-1" value="" style="shape=rect;fillColor=#e0e0e0;strokeColor=none;" parent="1" vertex="1">
          <mxGeometry x="100" y="-1460" width="130" height="20" as="geometry" />
        </mxCell>
        <mxCell id="F8wagsp4N3j23Xj3qt45-2" value="" style="html=1;strokeWidth=1;shadow=0;dashed=0;shape=mxgraph.ios7ui.marginRect;rx=3;ry=3;rectMargin=5;strokeColor=none;" parent="F8wagsp4N3j23Xj3qt45-1" vertex="1">
          <mxGeometry width="130" height="20" as="geometry" />
        </mxCell>
        <mxCell id="F8wagsp4N3j23Xj3qt45-3" value="Search" style="shape=mxgraph.ios7.icons.looking_glass;strokeColor=#e0e0e0;fillColor=none;fontColor=#e0e0e0;labelPosition=right;verticalLabelPosition=middle;align=left;verticalAlign=middle;fontSize=6;fontStyle=0;spacingTop=2;sketch=0;html=1;" parent="F8wagsp4N3j23Xj3qt45-1" vertex="1">
          <mxGeometry x="0.5" y="0.5" width="6" height="6" relative="1" as="geometry">
            <mxPoint x="-17" y="-3" as="offset" />
          </mxGeometry>
        </mxCell>
        <mxCell id="F8wagsp4N3j23Xj3qt45-4" value="&lt;span style=&quot;color: rgb(0, 0, 0); font-family: Helvetica; font-size: 12px; font-style: normal; font-variant-ligatures: normal; font-variant-caps: normal; font-weight: 400; letter-spacing: normal; orphans: 2; text-align: center; text-indent: 0px; text-transform: none; widows: 2; word-spacing: 0px; -webkit-text-stroke-width: 0px; background-color: rgb(251, 251, 251); text-decoration-thickness: initial; text-decoration-style: initial; text-decoration-color: initial; float: none; display: inline !important;&quot;&gt;Assigned Order&lt;/span&gt;" style="text;whiteSpace=wrap;html=1;" parent="1" vertex="1">
          <mxGeometry x="127" y="-1489" width="87" height="20" as="geometry" />
        </mxCell>
        <mxCell id="F8wagsp4N3j23Xj3qt45-5" value="Order&amp;nbsp; &amp;nbsp; &amp;nbsp; &amp;nbsp; &amp;nbsp; &amp;nbsp; &amp;nbsp; &amp;nbsp; &amp;nbsp; &amp;nbsp; &amp;nbsp; &amp;nbsp; &amp;nbsp; &amp;nbsp; &amp;nbsp; &amp;nbsp; View" style="whiteSpace=wrap;html=1;" parent="1" vertex="1">
          <mxGeometry x="70" y="-1432" width="190" height="70" as="geometry" />
        </mxCell>
        <mxCell id="F8wagsp4N3j23Xj3qt45-6" value="Order&amp;nbsp; &amp;nbsp; &amp;nbsp; &amp;nbsp; &amp;nbsp; &amp;nbsp; &amp;nbsp; &amp;nbsp; &amp;nbsp; &amp;nbsp; &amp;nbsp; &amp;nbsp; &amp;nbsp; &amp;nbsp; &amp;nbsp; &amp;nbsp; &amp;nbsp;View" style="whiteSpace=wrap;html=1;" parent="1" vertex="1">
          <mxGeometry x="70" y="-1342" width="190" height="70" as="geometry" />
        </mxCell>
        <mxCell id="F8wagsp4N3j23Xj3qt45-8" value="Order&amp;nbsp; &amp;nbsp; &amp;nbsp; &amp;nbsp; &amp;nbsp; &amp;nbsp; &amp;nbsp; &amp;nbsp; &amp;nbsp; &amp;nbsp; &amp;nbsp; &amp;nbsp; &amp;nbsp; &amp;nbsp; &amp;nbsp; &amp;nbsp; &amp;nbsp;View" style="whiteSpace=wrap;html=1;" parent="1" vertex="1">
          <mxGeometry x="68.38" y="-1240" width="190" height="70" as="geometry" />
        </mxCell>
        <mxCell id="F8wagsp4N3j23Xj3qt45-9" value="" style="verticalLabelPosition=bottom;verticalAlign=top;html=1;shadow=0;dashed=0;strokeWidth=1;shape=mxgraph.android.phone2;strokeColor=#c0c0c0;" parent="1" vertex="1">
          <mxGeometry x="40" y="-1040" width="230" height="410" as="geometry" />
        </mxCell>
        <mxCell id="tDnWIES8AQYFenpuGRB3-1" value="Home" style="text;html=1;align=center;verticalAlign=middle;resizable=0;points=[];autosize=1;strokeColor=none;fillColor=none;" parent="1" vertex="1">
          <mxGeometry x="56.750000000000014" y="-1491" width="60" height="30" as="geometry" />
        </mxCell>
        <mxCell id="tDnWIES8AQYFenpuGRB3-2" value="Home" style="text;html=1;align=center;verticalAlign=middle;resizable=0;points=[];autosize=1;strokeColor=none;fillColor=none;" parent="1" vertex="1">
          <mxGeometry x="49" y="-1003" width="60" height="30" as="geometry" />
        </mxCell>
        <mxCell id="tDnWIES8AQYFenpuGRB3-3" value="&lt;span style=&quot;color: rgb(0, 0, 0); font-family: Helvetica; font-size: 12px; font-style: normal; font-variant-ligatures: normal; font-variant-caps: normal; font-weight: 400; letter-spacing: normal; orphans: 2; text-align: center; text-indent: 0px; text-transform: none; widows: 2; word-spacing: 0px; -webkit-text-stroke-width: 0px; background-color: rgb(251, 251, 251); text-decoration-thickness: initial; text-decoration-style: initial; text-decoration-color: initial; float: none; display: inline !important;&quot;&gt;Update Order Status&lt;/span&gt;" style="text;whiteSpace=wrap;html=1;" parent="1" vertex="1">
          <mxGeometry x="118" y="-1000" width="140" height="40" as="geometry" />
        </mxCell>
        <mxCell id="tDnWIES8AQYFenpuGRB3-6" value="" style="shape=rect;fillColor=#e0e0e0;strokeColor=none;" parent="1" vertex="1">
          <mxGeometry x="89" y="-970" width="130" height="20" as="geometry" />
        </mxCell>
        <mxCell id="tDnWIES8AQYFenpuGRB3-7" value="" style="html=1;strokeWidth=1;shadow=0;dashed=0;shape=mxgraph.ios7ui.marginRect;rx=3;ry=3;rectMargin=5;strokeColor=none;" parent="tDnWIES8AQYFenpuGRB3-6" vertex="1">
          <mxGeometry width="130" height="20" as="geometry" />
        </mxCell>
        <mxCell id="tDnWIES8AQYFenpuGRB3-8" value="Search" style="shape=mxgraph.ios7.icons.looking_glass;strokeColor=#e0e0e0;fillColor=none;fontColor=#e0e0e0;labelPosition=right;verticalLabelPosition=middle;align=left;verticalAlign=middle;fontSize=6;fontStyle=0;spacingTop=2;sketch=0;html=1;" parent="tDnWIES8AQYFenpuGRB3-6" vertex="1">
          <mxGeometry x="0.5" y="0.5" width="6" height="6" relative="1" as="geometry">
            <mxPoint x="-17" y="-3" as="offset" />
          </mxGeometry>
        </mxCell>
        <mxCell id="tDnWIES8AQYFenpuGRB3-9" value="Order&amp;nbsp; &amp;nbsp; &amp;nbsp; &amp;nbsp; &amp;nbsp; &amp;nbsp; &amp;nbsp; &amp;nbsp; &amp;nbsp; &amp;nbsp; &amp;nbsp; &amp;nbsp; &amp;nbsp; &amp;nbsp; &amp;nbsp; &amp;nbsp; &amp;nbsp;&amp;nbsp;" style="whiteSpace=wrap;html=1;" parent="1" vertex="1">
          <mxGeometry x="59" y="-940" width="190" height="60" as="geometry" />
        </mxCell>
        <mxCell id="tDnWIES8AQYFenpuGRB3-11" value="Order&amp;nbsp; &amp;nbsp; &amp;nbsp; &amp;nbsp; &amp;nbsp; &amp;nbsp; &amp;nbsp; &amp;nbsp; &amp;nbsp; &amp;nbsp; &amp;nbsp; &amp;nbsp; &amp;nbsp; &amp;nbsp; &amp;nbsp;Update" style="whiteSpace=wrap;html=1;" parent="1" vertex="1">
          <mxGeometry x="59" y="-782" width="190" height="60" as="geometry" />
        </mxCell>
        <mxCell id="tDnWIES8AQYFenpuGRB3-13" value="" style="verticalLabelPosition=bottom;verticalAlign=top;html=1;shadow=0;dashed=0;strokeWidth=1;shape=mxgraph.android.phone2;strokeColor=#c0c0c0;" parent="1" vertex="1">
          <mxGeometry x="459" y="-1030" width="230" height="410" as="geometry" />
        </mxCell>
        <mxCell id="tDnWIES8AQYFenpuGRB3-15" value="Contact Admin" style="text;html=1;align=center;verticalAlign=middle;resizable=0;points=[];autosize=1;strokeColor=none;fillColor=none;" parent="1" vertex="1">
          <mxGeometry x="528" y="-1982" width="100" height="30" as="geometry" />
        </mxCell>
        <mxCell id="tDnWIES8AQYFenpuGRB3-16" value="&lt;span style=&quot;color: rgb(0, 0, 0); font-family: Helvetica; font-size: 12px; font-style: normal; font-variant-ligatures: normal; font-variant-caps: normal; font-weight: 400; letter-spacing: normal; orphans: 2; text-align: center; text-indent: 0px; text-transform: none; widows: 2; word-spacing: 0px; -webkit-text-stroke-width: 0px; background-color: rgb(251, 251, 251); text-decoration-thickness: initial; text-decoration-style: initial; text-decoration-color: initial; float: none; display: inline !important;&quot;&gt;Serach Order&lt;/span&gt;" style="text;whiteSpace=wrap;html=1;" parent="1" vertex="1">
          <mxGeometry x="539" y="-980" width="110" height="40" as="geometry" />
        </mxCell>
        <mxCell id="tDnWIES8AQYFenpuGRB3-17" value="Home" style="text;html=1;align=center;verticalAlign=middle;resizable=0;points=[];autosize=1;strokeColor=none;fillColor=none;" parent="1" vertex="1">
          <mxGeometry x="477" y="-980" width="60" height="30" as="geometry" />
        </mxCell>
        <mxCell id="tDnWIES8AQYFenpuGRB3-21" value="" style="shape=rect;fillColor=#e0e0e0;strokeColor=none;" parent="1" vertex="1">
          <mxGeometry x="509" y="-950" width="130" height="20" as="geometry" />
        </mxCell>
        <mxCell id="tDnWIES8AQYFenpuGRB3-22" value="" style="html=1;strokeWidth=1;shadow=0;dashed=0;shape=mxgraph.ios7ui.marginRect;rx=3;ry=3;rectMargin=5;strokeColor=none;" parent="tDnWIES8AQYFenpuGRB3-21" vertex="1">
          <mxGeometry width="130" height="20" as="geometry" />
        </mxCell>
        <mxCell id="tDnWIES8AQYFenpuGRB3-23" value="Search" style="shape=mxgraph.ios7.icons.looking_glass;strokeColor=#e0e0e0;fillColor=none;fontColor=#e0e0e0;labelPosition=right;verticalLabelPosition=middle;align=left;verticalAlign=middle;fontSize=6;fontStyle=0;spacingTop=2;sketch=0;html=1;" parent="tDnWIES8AQYFenpuGRB3-21" vertex="1">
          <mxGeometry x="0.5" y="0.5" width="6" height="6" relative="1" as="geometry">
            <mxPoint x="-17" y="-3" as="offset" />
          </mxGeometry>
        </mxCell>
        <mxCell id="tDnWIES8AQYFenpuGRB3-24" value="User 1&amp;nbsp;" style="whiteSpace=wrap;html=1;" parent="1" vertex="1">
          <mxGeometry x="474" y="-920" width="200" height="60" as="geometry" />
        </mxCell>
        <mxCell id="tDnWIES8AQYFenpuGRB3-25" value="User 2&amp;nbsp;" style="whiteSpace=wrap;html=1;" parent="1" vertex="1">
          <mxGeometry x="474" y="-855" width="200" height="60" as="geometry" />
        </mxCell>
        <mxCell id="tDnWIES8AQYFenpuGRB3-26" value="User 3&amp;nbsp;" style="whiteSpace=wrap;html=1;" parent="1" vertex="1">
          <mxGeometry x="473" y="-790" width="200" height="60" as="geometry" />
        </mxCell>
        <mxCell id="tDnWIES8AQYFenpuGRB3-27" value="User 4" style="whiteSpace=wrap;html=1;" parent="1" vertex="1">
          <mxGeometry x="472.38" y="-725" width="200" height="60" as="geometry" />
        </mxCell>
        <mxCell id="tDnWIES8AQYFenpuGRB3-28" value="Home" style="text;html=1;align=center;verticalAlign=middle;resizable=0;points=[];autosize=1;strokeColor=none;fillColor=none;" parent="1" vertex="1">
          <mxGeometry x="429" y="-1982" width="60" height="30" as="geometry" />
        </mxCell>
        <mxCell id="tDnWIES8AQYFenpuGRB3-29" value="" style="verticalLabelPosition=bottom;verticalAlign=top;html=1;shadow=0;dashed=0;strokeWidth=1;shape=mxgraph.android.phone2;strokeColor=#c0c0c0;" parent="1" vertex="1">
          <mxGeometry x="420" y="-1530" width="230" height="410" as="geometry" />
        </mxCell>
        <mxCell id="tDnWIES8AQYFenpuGRB3-42" value="" style="rounded=1;fillColor=#ffffff;strokeColor=#DFE1E5;shadow=1;html=1;arcSize=4;sketch=1;hachureGap=4;pointerEvents=0;fontFamily=Architects Daughter;fontSource=https%3A%2F%2Ffonts.googleapis.com%2Fcss%3Ffamily%3DArchitects%2BDaughter;fontSize=20;" parent="1" vertex="1">
          <mxGeometry x="149.06999999999994" y="-896.75" width="97.62" height="106.75" as="geometry" />
        </mxCell>
        <mxCell id="tDnWIES8AQYFenpuGRB3-43" value="Onprocess" style="rounded=0;fillColor=#F4F5F7;strokeColor=none;shadow=0;html=1;align=left;fontSize=12;spacingLeft=10;fontColor=#253858;resizeWidth=1;sketch=1;hachureGap=4;pointerEvents=0;fontFamily=Architects Daughter;fontSource=https%3A%2F%2Ffonts.googleapis.com%2Fcss%3Ffamily%3DArchitects%2BDaughter;" parent="tDnWIES8AQYFenpuGRB3-42" vertex="1">
          <mxGeometry width="97.62" height="30" relative="1" as="geometry">
            <mxPoint y="6" as="offset" />
          </mxGeometry>
        </mxCell>
        <mxCell id="tDnWIES8AQYFenpuGRB3-44" value="Completed" style="rounded=0;fillColor=none;strokeColor=none;shadow=0;html=1;align=left;fontSize=12;spacingLeft=10;fontColor=#253858;resizeWidth=1;sketch=1;hachureGap=4;pointerEvents=0;fontFamily=Architects Daughter;fontSource=https%3A%2F%2Ffonts.googleapis.com%2Fcss%3Ffamily%3DArchitects%2BDaughter;" parent="tDnWIES8AQYFenpuGRB3-42" vertex="1">
          <mxGeometry width="97.62" height="33" relative="1" as="geometry">
            <mxPoint y="39" as="offset" />
          </mxGeometry>
        </mxCell>
        <mxCell id="tDnWIES8AQYFenpuGRB3-45" value="Closed" style="rounded=0;fillColor=none;strokeColor=none;shadow=0;html=1;align=left;fontSize=12;spacingLeft=10;fontColor=#253858;resizeWidth=1;sketch=1;hachureGap=4;pointerEvents=0;fontFamily=Architects Daughter;fontSource=https%3A%2F%2Ffonts.googleapis.com%2Fcss%3Ffamily%3DArchitects%2BDaughter;" parent="tDnWIES8AQYFenpuGRB3-42" vertex="1">
          <mxGeometry width="97.62" height="33" relative="1" as="geometry">
            <mxPoint y="72" as="offset" />
          </mxGeometry>
        </mxCell>
        <mxCell id="tDnWIES8AQYFenpuGRB3-40" value="Status" style="rounded=1;fillColor=#253858;strokeColor=none;html=1;fontColor=#ffffff;align=left;fontSize=12;spacingLeft=10;sketch=0;hachureGap=4;pointerEvents=0;fontFamily=Architects Daughter;fontSource=https%3A%2F%2Ffonts.googleapis.com%2Fcss%3Ffamily%3DArchitects%2BDaughter;" parent="1" vertex="1">
          <mxGeometry x="154" y="-923.25" width="91" height="26.5" as="geometry" />
        </mxCell>
        <mxCell id="tDnWIES8AQYFenpuGRB3-41" value="" style="shape=triangle;direction=south;fillColor=#ffffff;strokeColor=none;html=1;sketch=1;hachureGap=4;pointerEvents=0;fontFamily=Architects Daughter;fontSource=https%3A%2F%2Ffonts.googleapis.com%2Fcss%3Ffamily%3DArchitects%2BDaughter;fontSize=20;" parent="tDnWIES8AQYFenpuGRB3-40" vertex="1">
          <mxGeometry x="1" y="0.5" width="12" height="6" relative="1" as="geometry">
            <mxPoint x="-20" y="-3" as="offset" />
          </mxGeometry>
        </mxCell>
        <mxCell id="tDnWIES8AQYFenpuGRB3-53" value="Accept" style="rounded=0;whiteSpace=wrap;html=1;fillColor=#3fea10;" parent="1" vertex="1">
          <mxGeometry x="459" y="-1274" width="70" height="20" as="geometry" />
        </mxCell>
        <mxCell id="tDnWIES8AQYFenpuGRB3-54" value="Decline" style="rounded=0;whiteSpace=wrap;html=1;fillColor=#f41010;" parent="1" vertex="1">
          <mxGeometry x="552" y="-1274" width="70" height="20" as="geometry" />
        </mxCell>
        <mxCell id="tDnWIES8AQYFenpuGRB3-64" value="Status" style="rounded=1;fillColor=#253858;strokeColor=none;html=1;fontColor=#ffffff;align=left;fontSize=12;spacingLeft=10;sketch=0;hachureGap=4;pointerEvents=0;fontFamily=Architects Daughter;fontSource=https%3A%2F%2Ffonts.googleapis.com%2Fcss%3Ffamily%3DArchitects%2BDaughter;" parent="1" vertex="1">
          <mxGeometry x="152.38" y="-765.25" width="91" height="26.5" as="geometry" />
        </mxCell>
        <mxCell id="tDnWIES8AQYFenpuGRB3-65" value="" style="shape=triangle;direction=south;fillColor=#ffffff;strokeColor=none;html=1;sketch=1;hachureGap=4;pointerEvents=0;fontFamily=Architects Daughter;fontSource=https%3A%2F%2Ffonts.googleapis.com%2Fcss%3Ffamily%3DArchitects%2BDaughter;fontSize=20;" parent="tDnWIES8AQYFenpuGRB3-64" vertex="1">
          <mxGeometry x="1" y="0.5" width="12" height="6" relative="1" as="geometry">
            <mxPoint x="-20" y="-3" as="offset" />
          </mxGeometry>
        </mxCell>
        <mxCell id="h4Gs-XI1UGiih9rUiNyA-1" value="Order Details" style="text;html=1;align=center;verticalAlign=middle;resizable=0;points=[];autosize=1;strokeColor=none;fillColor=none;" vertex="1" parent="1">
          <mxGeometry x="490" y="-1460" width="90" height="30" as="geometry" />
        </mxCell>
        <mxCell id="cWuE2ygQgneGVz4lWSFO-1" value="Item 1 * 1&amp;nbsp; &amp;nbsp; &amp;nbsp; &amp;nbsp; &amp;nbsp; &amp;nbsp; &amp;nbsp; &amp;nbsp; &amp;nbsp; &amp;nbsp; &amp;nbsp; &amp;nbsp; &amp;nbsp; &amp;nbsp; &amp;nbsp; &amp;nbsp; &amp;nbsp; $$$" style="text;html=1;align=center;verticalAlign=middle;resizable=0;points=[];autosize=1;strokeColor=none;fillColor=none;" vertex="1" parent="1">
          <mxGeometry x="428" y="-1412" width="210" height="30" as="geometry" />
        </mxCell>
        <mxCell id="cWuE2ygQgneGVz4lWSFO-2" value="Item 1 * 1&amp;nbsp; &amp;nbsp; &amp;nbsp; &amp;nbsp; &amp;nbsp; &amp;nbsp; &amp;nbsp; &amp;nbsp; &amp;nbsp; &amp;nbsp; &amp;nbsp; &amp;nbsp; &amp;nbsp; &amp;nbsp; &amp;nbsp; &amp;nbsp; &amp;nbsp; $$$" style="text;html=1;align=center;verticalAlign=middle;resizable=0;points=[];autosize=1;strokeColor=none;fillColor=none;" vertex="1" parent="1">
          <mxGeometry x="428" y="-1372" width="210" height="30" as="geometry" />
        </mxCell>
        <mxCell id="cWuE2ygQgneGVz4lWSFO-3" value="Item 1 * 1&amp;nbsp; &amp;nbsp; &amp;nbsp; &amp;nbsp; &amp;nbsp; &amp;nbsp; &amp;nbsp; &amp;nbsp; &amp;nbsp; &amp;nbsp; &amp;nbsp; &amp;nbsp; &amp;nbsp; &amp;nbsp; &amp;nbsp; &amp;nbsp; &amp;nbsp; $$$" style="text;html=1;align=center;verticalAlign=middle;resizable=0;points=[];autosize=1;strokeColor=none;fillColor=none;" vertex="1" parent="1">
          <mxGeometry x="428" y="-1336" width="210" height="30" as="geometry" />
        </mxCell>
        <mxCell id="cWuE2ygQgneGVz4lWSFO-4" value="Home" style="text;html=1;align=center;verticalAlign=middle;resizable=0;points=[];autosize=1;strokeColor=none;fillColor=none;" vertex="1" parent="1">
          <mxGeometry x="430" y="-1494" width="60" height="30" as="geometry" />
        </mxCell>
        <mxCell id="cWuE2ygQgneGVz4lWSFO-5" value="" style="verticalLabelPosition=bottom;verticalAlign=top;html=1;shadow=0;dashed=0;strokeWidth=1;shape=mxgraph.android.phone2;strokeColor=#c0c0c0;" vertex="1" parent="1">
          <mxGeometry x="82.88" y="-540" width="230" height="410" as="geometry" />
        </mxCell>
        <mxCell id="cWuE2ygQgneGVz4lWSFO-6" value="Order Details" style="text;html=1;align=center;verticalAlign=middle;resizable=0;points=[];autosize=1;strokeColor=none;fillColor=none;" vertex="1" parent="1">
          <mxGeometry x="149.07" y="-460" width="90" height="30" as="geometry" />
        </mxCell>
        <mxCell id="cWuE2ygQgneGVz4lWSFO-7" value="Item 1 * 1&amp;nbsp; &amp;nbsp; &amp;nbsp; &amp;nbsp; &amp;nbsp; &amp;nbsp; &amp;nbsp; &amp;nbsp; &amp;nbsp; &amp;nbsp; &amp;nbsp; &amp;nbsp; &amp;nbsp; &amp;nbsp; &amp;nbsp; &amp;nbsp; &amp;nbsp; $$$" style="text;html=1;align=center;verticalAlign=middle;resizable=0;points=[];autosize=1;strokeColor=none;fillColor=none;" vertex="1" parent="1">
          <mxGeometry x="94.5" y="-400" width="210" height="30" as="geometry" />
        </mxCell>
        <mxCell id="cWuE2ygQgneGVz4lWSFO-8" value="Item 1 * 1&amp;nbsp; &amp;nbsp; &amp;nbsp; &amp;nbsp; &amp;nbsp; &amp;nbsp; &amp;nbsp; &amp;nbsp; &amp;nbsp; &amp;nbsp; &amp;nbsp; &amp;nbsp; &amp;nbsp; &amp;nbsp; &amp;nbsp; &amp;nbsp; &amp;nbsp; $$$" style="text;html=1;align=center;verticalAlign=middle;resizable=0;points=[];autosize=1;strokeColor=none;fillColor=none;" vertex="1" parent="1">
          <mxGeometry x="92.88" y="-360" width="210" height="30" as="geometry" />
        </mxCell>
        <mxCell id="cWuE2ygQgneGVz4lWSFO-9" value="Item 1 * 1&amp;nbsp; &amp;nbsp; &amp;nbsp; &amp;nbsp; &amp;nbsp; &amp;nbsp; &amp;nbsp; &amp;nbsp; &amp;nbsp; &amp;nbsp; &amp;nbsp; &amp;nbsp; &amp;nbsp; &amp;nbsp; &amp;nbsp; &amp;nbsp; &amp;nbsp; $$$" style="text;html=1;align=center;verticalAlign=middle;resizable=0;points=[];autosize=1;strokeColor=none;fillColor=none;" vertex="1" parent="1">
          <mxGeometry x="93" y="-320" width="210" height="30" as="geometry" />
        </mxCell>
        <mxCell id="cWuE2ygQgneGVz4lWSFO-11" value="Contact Admin" style="text;html=1;align=center;verticalAlign=middle;resizable=0;points=[];autosize=1;strokeColor=none;fillColor=none;" vertex="1" parent="1">
          <mxGeometry x="538" y="-1494" width="100" height="30" as="geometry" />
        </mxCell>
        <mxCell id="cWuE2ygQgneGVz4lWSFO-12" value="Home" style="text;html=1;align=center;verticalAlign=middle;resizable=0;points=[];autosize=1;strokeColor=none;fillColor=none;" vertex="1" parent="1">
          <mxGeometry x="92.38" y="-500" width="60" height="30" as="geometry" />
        </mxCell>
        <mxCell id="cWuE2ygQgneGVz4lWSFO-13" value="Contact Admin" style="text;html=1;align=center;verticalAlign=middle;resizable=0;points=[];autosize=1;strokeColor=none;fillColor=none;" vertex="1" parent="1">
          <mxGeometry x="209" y="-500" width="100" height="30" as="geometry" />
        </mxCell>
      </root>
    </mxGraphModel>
  </diagram>
</mxfile>
